<svg xmlns="http://www.w3.org/2000/svg" width="25" height="24" viewBox="0 0 25 24"><defs><style>.a{fill:#FFF;}</style></defs><path class="a" d="M12.5,0A12.4,12.4,0,0,0,0,12.3,12.323,12.323,0,0,0,8.547,23.979c.625.116.854-.265.854-.592,0-.292-.01-1.066-.016-2.092-3.477.742-4.21-1.651-4.21-1.651a3.278,3.278,0,0,0-1.391-1.8c-1.132-.763.088-.747.088-.747a2.615,2.615,0,0,1,1.915,1.268,2.689,2.689,0,0,0,3.641,1.024,2.607,2.607,0,0,1,.792-1.646c-2.776-.308-5.694-1.366-5.694-6.08a4.705,4.705,0,0,1,1.286-3.3A4.312,4.312,0,0,1,5.921,5.1s1.047-.33,3.438,1.262a11.965,11.965,0,0,1,6.25,0C17.983,4.775,19.03,5.1,19.03,5.1a4.431,4.431,0,0,1,.125,3.257,4.724,4.724,0,0,1,1.281,3.3c0,4.727-2.922,5.767-5.7,6.07a2.922,2.922,0,0,1,.844,2.277c0,1.647-.016,2.97-.016,3.369,0,.322.219.707.859.584A12.285,12.285,0,0,0,25,12.3,12.4,12.4,0,0,0,12.5,0Z"/></svg>