<svg xmlns="http://www.w3.org/2000/svg" width="24" height="19.504" viewBox="0 0 24 19.504"><defs><style>.a{fill:#FFF;}</style></defs><path class="a" d="M24,2.309a9.831,9.831,0,0,1-2.828.775A4.932,4.932,0,0,0,23.337.36,9.864,9.864,0,0,1,20.21,1.555a4.927,4.927,0,0,0-8.391,4.49A13.978,13.978,0,0,1,1.671.9,4.93,4.93,0,0,0,3.194,7.475,4.9,4.9,0,0,1,.965,6.859a4.927,4.927,0,0,0,3.949,4.89,4.935,4.935,0,0,1-2.224.084,4.928,4.928,0,0,0,4.6,3.419A9.9,9.9,0,0,1,0,17.292,13.939,13.939,0,0,0,7.548,19.5,13.925,13.925,0,0,0,21.543,4.858,10.025,10.025,0,0,0,24,2.309Z"/></svg>