<svg xmlns="http://www.w3.org/2000/svg" width="24" height="23.999" viewBox="0 0 24 23.999"><defs><style>.a{fill:#33323D;}</style></defs><path class="a" d="M21.6,24H2.4A2.4,2.4,0,0,1,0,21.6V2.4A2.4,2.4,0,0,1,2.4,0H21.6A2.4,2.4,0,0,1,24,2.4V21.6A2.4,2.4,0,0,1,21.6,24ZM15,12.24a1.847,1.847,0,0,1,1.8,1.8V20.4h3.6V13.561a4.256,4.256,0,0,0-4.2-4.2,3.891,3.891,0,0,0-3,1.679V9.6H9.6V20.4h3.6V14.04A1.847,1.847,0,0,1,15,12.24ZM3.6,9.6V20.4H7.2V9.6ZM5.4,3.24A2.16,2.16,0,1,0,7.559,5.4,2.162,2.162,0,0,0,5.4,3.24Z" transform="translate(0 0)"/></svg>