<?xml version="1.0" standalone="no"?>
<!DOCTYPE svg PUBLIC "-//W3C//DTD SVG 1.1//EN" "http://www.w3.org/Graphics/SVG/1.1/DTD/svg11.dtd">
<svg xmlns="http://www.w3.org/2000/svg">
<defs >
<font id="IbarraRealNova" horiz-adv-x="579" ><font-face
    font-family="Ibarra Real Nova"
    units-per-em="1000"
    panose-1="0 0 0 0 0 0 0 0 0 0"
    ascent="950"
    descent="-300"
    alphabetic="0" />
<glyph unicode=" " horiz-adv-x="285" />
<glyph unicode="!" horiz-adv-x="249" d="M94 239L45 658H200L151 239H94ZM126 -11Q94 -11 71 12T48 67Q48 100 71 123T126 146Q158 146 181 123T204 67Q204 35 181 12T126 -11Z" />
<glyph unicode="&quot;" horiz-adv-x="492" d="M313 401L266 710H433L386 401H313ZM106 401L59 710H226L179 401H106Z" />
<glyph unicode="#" horiz-adv-x="487" d="M244 -26L348 674H422L315 -26H244ZM20 166L30 235H434L424 166H20ZM64 -26L169 674H241L134 -26H64ZM53 396L63 465H467L457 396H53Z" />
<glyph unicode="$" horiz-adv-x="583" d="M269 -89V766H309V-89H269ZM301 -11Q215 -11 153 10T55 50Q63 94 63 141T50 236H85Q90 174 116 126T189 50T301 22Q330 22 361 33T413 71T435 139Q435 176 420 200T365 244T253 289Q162 320 114 363T66 487Q66 539 91
583T167 655T291 683Q331 683 356 675T400 658Q415 651 427 646T452 640L484 646L487 644Q485 634 484 620T483 594Q483 563 487 534T496 486T501 467H474Q459 525 432 565T368 628T289 650Q250 650 223 633T181 590T167 536Q167 501 180 479T229 439T335 398Q408
374 450 346T510 282T528 196Q528 133 500 87T420 15T301 -11Z" />
<glyph unicode="%" horiz-adv-x="671" d="M172 342Q122 342 90 366T41 429T25 515Q25 561 41 599T89 660T172 683Q221 683 253 660T301 599T317 515Q317 469 302 430T254 366T172 342ZM171 369Q195 369 206 389T220 442T224 515Q224 554 221 586T206 636T171 655Q148
655 137 637T122 586T118 515Q118 475 121 442T136 389T171 369ZM500 -11Q451 -11 419 13T370 76T354 162Q354 208 370 246T418 307T500 330Q550 330 582 307T630 246T646 162Q646 116 631 77T583 13T500 -11ZM500 16Q524 16 535 36T549 89T553 162Q553 201 550
233T535 283T500 302Q477 302 466 284T451 233T447 162Q447 122 450 89T465 36T500 16ZM527 673H592L149 0H83L527 673Z" />
<glyph unicode="&amp;" horiz-adv-x="743" d="M318 -13Q235 -13 167 14T59 96T18 232Q18 275 39 316T102 387T208 423V426Q149 449 121 476T92 552Q92 597 119 626T190 669T280 683Q327 683 369 669T439 629T466 562Q466 534 451 519T413 504Q390 504 373 516T355
551Q355 565 358 573T366 588Q370 594 372 600T375 617Q375 627 360 637T312 647Q269 647 247 619T225 541Q225 496 247 464T319 412L350 400L340 377L297 383Q261 375 231 351T184 289T166 202Q166 142 186 102T241 41T313 21Q372 21 415 48T481 133T505 280V295Q505
327 496 338T451 356L409 365V387H750V365L699 354Q665 347 655 337T645 295V272Q645 208 627 156T569 66T467 8T318 -13Z" />
<glyph unicode="&apos;" horiz-adv-x="285" d="M106 401L59 710H226L179 401H106Z" />
<glyph unicode="(" horiz-adv-x="299" d="M229 -244Q157 -173 115 -88T54 87T35 257Q35 338 53 427T114 601T229 758L257 738Q199 629 167 509T134 257Q134 128 165 8T257 -224L229 -244Z" />
<glyph unicode=")" horiz-adv-x="299" d="M70 -244L42 -224Q102 -112 133 8T165 257Q165 389 133 509T42 738L70 758Q142 687 184 602T245 427T264 257Q264 176 246 87T185 -87T70 -244Z" />
<glyph unicode="*" horiz-adv-x="451" d="M351 380Q337 388 326 401T301 428Q286 445 270 461T228 491L215 499Q191 513 169 519T123 531Q105 535 88 538T57 550Q39 561 40 579T46 606Q51 615 66 625T100 625Q114 617 126 605T150 578Q166 561 183 545T224 514L237
507Q262 493 284 487T328 475Q348 471 364 467T394 455Q412 445 411 426T405 399Q400 390 385 380T351 380ZM100 380Q82 370 67 380T46 399Q41 408 40 426T57 455Q71 463 88 467T122 475Q145 480 167 487T215 507L227 515Q252 529 269 545T301 578Q315 592 326
605T351 625Q369 635 385 625T405 606Q410 597 411 579T394 550Q380 542 364 539T328 531Q306 526 284 520T237 499L223 492Q200 478 183 462T150 428Q137 415 126 402T100 380ZM226 295Q216 295 199 303T182 333Q182 349 187 365T199 400Q206 421 211 444T217
495V510Q217 538 212 560T199 605Q193 623 188 639T182 672Q182 693 198 701T225 710Q236 710 252 702T269 672Q269 656 264 640T253 605Q246 583 241 561T235 510V495Q235 467 240 444T253 400Q259 381 264 365T269 333Q269 312 253 304T226 295Z" />
<glyph unicode="+" horiz-adv-x="570" d="M256 127V304H76V361H256V537H313V361H494V304H313V127H256Z" />
<glyph unicode="," horiz-adv-x="285" d="M44 -164V-131Q87 -124 113 -96T139 -28Q139 1 118 21T58 48V79Q85 93 100 111T132 158Q181 142 210 108T240 24Q240 -23 216 -64T148 -133T44 -164Z" />
<glyph unicode="-" horiz-adv-x="285" d="M12 330H273V240H12V330Z" />
<glyph unicode="." horiz-adv-x="285" d="M142 -11Q108 -11 84 13T59 72Q59 107 83 131T142 156Q177 156 201 132T225 72Q225 38 201 14T142 -11Z" />
<glyph unicode="/" horiz-adv-x="446" d="M25 -7L369 710H421L77 -7H25Z" />
<glyph unicode="0" horiz-adv-x="605" d="M303 -8Q235 -8 187 19T107 95T60 207T45 342Q45 438 72 515T156 637T303 683Q392 683 449 638T533 515T560 342Q560 270 545 207T499 96T419 20T303 -8ZM302 27Q338 27 360 52T393 121T408 221T412 342Q412 405 408 460T393
557T360 623T303 647Q267 647 246 623T213 558T197 461T193 342Q193 278 196 222T211 121T244 52T302 27Z" />
<glyph unicode="1" horiz-adv-x="395" d="M30 0V22L81 33Q104 38 115 45T131 64T135 98V587Q135 601 128 608T102 614L30 611V640L275 680V98Q275 77 279 65T294 45T329 33L380 22V0H30Z" />
<glyph unicode="2" horiz-adv-x="505" d="M25 0V19L180 214Q209 250 232 285T271 357T295 430T304 508Q304 574 280 609T202 645Q178 645 161 640T135 625T126 603Q126 588 134 574Q138 567 141 559T144 540Q144 514 127 500T86 485Q61 485 45 502T29 543Q29 578
53 610T121 662T225 683Q298 683 347 659T422 595T447 509Q447 446 417 394T342 296T250 202L169 119H375Q401 119 414 134T437 177L443 193H465L427 0H25Z" />
<glyph unicode="3" horiz-adv-x="510" d="M207 -8Q157 -8 114 8T46 54T20 125Q20 157 38 172T79 188Q108 188 123 174T139 139Q139 121 133 111T118 94Q112 88 108 83T103 70Q103 52 129 41T189 29Q219 29 250 44T301 99T322 206Q322 245 307 277T263 330T193
350Q179 346 166 341T139 332L126 354L147 365Q174 379 203 404T254 464T275 547Q275 591 256 619T189 647Q156 647 141 637T126 617Q126 607 128 601T135 588Q139 581 142 573T146 551Q146 529 129 517T88 504Q65 504 50 519T35 562Q35 590 56 617T118 664T214
683Q269 683 313 669T383 626T409 552Q409 503 378 468T287 410V408Q343 402 384 375T447 308T470 219Q470 158 441 106T354 23T207 -8Z" />
<glyph unicode="4" horiz-adv-x="576" d="M192 0V22L243 33Q278 41 287 54T297 98V529L317 520L77 221L75 244H459Q477 244 488 252T507 279L523 319H546L507 157H15V206L395 683H428V98Q428 67 438 54T482 33L533 22V0H192Z" />
<glyph unicode="5" horiz-adv-x="495" d="M197 -9Q147 -9 104 7T36 53T10 124Q10 156 28 171T69 187Q98 187 113 173T129 138Q129 120 123 110T108 93Q102 87 98 82T93 69Q93 51 118 40T180 28Q215 28 245 47T294 106T313 205Q313 253 290 285T226 334T137 351Q126
351 118 351T96 348L84 355L121 687H360Q374 687 385 695T404 719L415 749H442L410 581H152L136 442Q148 444 159 444T182 444Q259 444 320 418T418 341T455 219Q455 161 427 109T342 24T197 -9Z" />
<glyph unicode="6" horiz-adv-x="531" d="M272 -9Q218 -9 174 8T99 60T52 145T35 262Q35 358 65 435T149 568T276 653T438 683L440 661Q358 654 307 616T229 520T191 392T181 254Q181 177 193 127T227 53T274 29Q322 29 343 76T364 214Q364 265 356 300T328 354T278
372Q241 372 218 350T184 289T173 200L148 301Q153 333 173 361T228 406T305 423Q372 423 416 393T483 315T506 216Q506 143 474 93T389 17T272 -9Z" />
<glyph unicode="7" horiz-adv-x="520" d="M105 0L402 556H107Q93 556 80 548T59 521L43 481H20L62 674H475V573L254 0H105Z" />
<glyph unicode="8" horiz-adv-x="565" d="M276 -12Q215 -12 163 8T78 66T46 158Q46 206 72 247T141 317T231 357L256 340Q214 312 199 268T184 181Q184 108 216 66T294 24Q344 24 365 57T387 146Q387 186 366 213T314 260T248 300Q205 325 165 355T98 423T72 513Q72
559 96 597T171 659T299 683Q354 683 398 665T469 614T496 533Q496 492 473 458T411 399T329 363L313 376Q346 404 361 447T376 531Q376 586 352 614T283 643Q262 643 241 634T206 605T191 548Q191 519 211 494T262 448T327 407Q372 382 416 351T488 278T517 181Q517
124 486 81T400 13T276 -12Z" />
<glyph unicode="9" horiz-adv-x="531" d="M259 684Q313 684 357 667T432 615T479 530T496 413Q496 317 466 240T382 107T255 22T93 -8L91 14Q173 22 224 59T302 155T340 283T350 421Q350 498 338 548T304 622T257 646Q209 646 188 599T167 461Q167 410 175 375T203
322T253 303Q290 303 313 325T347 386T358 475L383 374Q378 342 358 314T304 269T226 252Q159 252 115 282T48 360T25 459Q25 533 57 583T142 658T259 684Z" />
<glyph unicode=":" horiz-adv-x="285" d="M142 244Q108 244 84 268T59 327Q59 362 83 386T142 411Q177 411 201 387T225 327Q225 293 201 269T142 244ZM142 303Q108 303 84 327T59 386Q59 421 83 445T142 470Q177 470 201 446T225 386Q225 352 201 328T142 303Z" />
<glyph unicode=";" horiz-adv-x="285" d="M142 303Q108 303 84 327T59 386Q59 421 83 445T142 470Q177 470 201 446T225 386Q225 352 201 328T142 303ZM44 -164V-131Q87 -124 113 -96T139 -28Q139 1 118 21T58 48V79Q85 93 100 111T132 158Q181 142 210 108T240
24Q240 -23 216 -64T148 -133T44 -164Z" />
<glyph unicode="&lt;" horiz-adv-x="570" d="M502 188V126L77 325L78 343L502 540V479L185 334L502 188Z" />
<glyph unicode="=" horiz-adv-x="570" d="M76 418V475H494V418H76ZM76 445V502H494V445H76Z" />
<glyph unicode="&gt;" horiz-adv-x="570" d="M68 188L385 334L68 479V540L492 343L493 325L68 126V188Z" />
<glyph unicode="?" horiz-adv-x="383" d="M87 193Q87 264 98 304T137 362T216 389Q248 394 263 399T283 413T288 436Q288 457 276 466T237 478L62 497V673H81L89 643Q93 630 105 623T131 614L229 598Q293 588 320 552T348 441Q348 366 322 322T218 266Q178 261
159 252T135 228T129 193H87ZM111 -11Q80 -11 58 11T35 65Q35 97 57 119T111 142Q143 142 165 120T187 65Q187 34 165 12T111 -11Z" />
<glyph unicode="@" horiz-adv-x="1007" d="M509 -214Q415 -214 331 -187T181 -104T78 34T40 228Q40 322 75 404T176 548T328 646T521 681Q635 681 719 650T858 565T940 445T967 307Q967 229 944 172T882 78T796 22T701 4Q666 4 635 16T584 51T565 109L597 102L599
71Q578 53 552 35T498 5T445 -7Q409 -7 381 13T336 66T320 137Q320 155 323 162T335 172L526 248Q543 255 548 263T554 285V327Q554 374 531 394T478 415Q455 415 438 405T421 374Q421 370 424 365T430 354Q434 347 437 339T440 317Q440 295 424 279T384 263Q359
263 343 281T327 321Q327 359 354 386T423 428T509 443Q554 443 590 428T647 381T669 302V139Q669 88 681 71T730 53Q765 53 793 81T837 166T854 305Q854 368 834 427T773 534T669 609T519 637Q440 637 374 609T260 528T184 399T157 229Q157 125 185 52T264 -66T379
-132T519 -153Q599 -153 681 -129T834 -55L865 -95Q792 -151 699 -182T509 -214ZM493 52Q510 52 522 57T543 69Q554 77 554 95V215Q554 217 553 218T548 218L436 173Q430 171 428 166T425 144Q425 124 434 103T459 67T493 52Z" />
<glyph unicode="A" horiz-adv-x="769" d="M5 0V22L63 35Q85 40 96 49T115 75L319 558L288 635Q320 636 342 647T375 673T386 698H400L662 62Q667 50 678 44T713 33L764 22V0H414V22L465 33Q487 38 497 45T508 66Q508 71 507 76T503 87L325 533H347L153 74Q152
71 152 68T151 63Q151 54 158 47T181 37L267 22V0H5ZM216 226V259H501V226H216Z" />
<glyph unicode="B" horiz-adv-x="715" d="M30 0V22L81 33Q116 41 125 51T135 92V581Q135 613 126 623T81 640L30 651V673H400Q469 673 520 654T599 599T628 517Q628 454 586 420T473 376V374Q522 371 566 350T637 292T665 203Q665 128 626 84T523 20T380 0H30ZM334
33H361Q406 33 438 54T487 114T505 203Q505 251 490 284T443 335T357 353H275V88Q275 55 287 44T334 33ZM275 386H364Q417 386 446 425T476 516Q476 572 441 606T342 640H275V386Z" />
<glyph unicode="C" horiz-adv-x="739" d="M435 -10Q348 -10 276 16T151 88T69 196T40 329Q40 405 69 469T151 582T275 656T431 683Q488 683 520 675T575 656Q593 648 609 642T648 635Q659 635 667 636T686 640L690 637Q679 594 685 547T702 451H675Q651 509 617
553T536 623T427 648Q362 648 309 609T225 499T193 329Q193 239 222 170T305 63T431 24Q478 24 517 39T587 82T643 146T683 224H714Q700 176 692 126T683 29H676Q649 29 625 24T577 12Q549 4 517 -3T435 -10Z" />
<glyph unicode="D" horiz-adv-x="785" d="M30 0V22L81 33Q116 41 125 51T135 92V581Q135 613 126 623T81 640L30 651V673H379Q457 673 524 647T640 576T717 470T745 341Q745 268 719 206T644 98T530 26T386 0H30ZM365 33Q434 33 484 71T563 178T591 342Q591 431
563 498T485 604T365 642H275V92Q275 63 298 48T365 33Z" />
<glyph unicode="E" horiz-adv-x="670" d="M30 0V22L81 33Q116 41 125 51T135 92V581Q135 613 126 623T81 640L30 651V673H603Q600 659 599 646T598 618Q598 587 603 558T613 496H591Q575 536 549 568T488 620T408 640H275V372H403Q453 372 474 392T502 448L510
494H532V217H510L501 265Q495 300 474 319T405 339H275V119Q275 90 278 71T295 42T344 33H418Q454 33 482 43T533 73T575 120L618 180H640Q630 136 623 91T615 0H30Z" />
<glyph unicode="F" horiz-adv-x="647" d="M30 0V22L81 33Q116 41 125 51T135 92V581Q135 613 126 623T81 640L30 651V673H602Q599 659 598 646T597 618Q597 587 602 558T612 496H590Q578 526 560 552T520 597T469 628T407 640H275V352H403Q437 352 457 361T487
387T502 428L510 474H532V197H510L501 245Q497 269 487 285T457 310T405 319H275V92Q275 61 285 51T329 33L387 22V0H30Z" />
<glyph unicode="G" horiz-adv-x="796" d="M419 -11Q347 -11 280 12T158 79T72 187T40 335Q40 411 69 474T149 585T268 657T415 683Q468 683 502 676T559 660T601 643T643 635Q654 635 661 636T678 640L682 637Q680 627 678 616T675 594Q675 563 679 534T688 487T693
468H658Q637 526 603 566T524 628T421 649Q367 649 325 625T253 557T209 457T193 335Q193 271 206 215T247 115T321 48T434 24Q457 24 493 30T563 67V217Q563 249 554 259T509 276L458 287V309H791V287L757 280Q723 273 713 262T703 219V30L700 28Q687 31 680 32T655
34Q637 34 617 29T572 15Q543 6 506 -2T419 -11Z" />
<glyph unicode="H" horiz-adv-x="876" d="M496 0V22L547 33Q582 41 591 51T601 92V581Q601 613 592 623T547 640L496 651V673H846V651L795 640Q761 633 751 623T741 581V92Q741 61 751 51T795 33L846 22V0H496ZM30 0V22L81 33Q116 41 125 51T135 92V581Q135 613
126 623T81 640L30 651V673H380V651L329 640Q295 633 285 623T275 581V92Q275 61 285 51T329 33L380 22V0H30ZM257 341V374H641V341H257Z" />
<glyph unicode="I" horiz-adv-x="410" d="M30 0V22L81 33Q116 41 125 51T135 92V581Q135 613 126 623T81 640L30 651V673H380V651L329 640Q295 633 285 623T275 581V92Q275 61 285 51T329 33L380 22V0H30Z" />
<glyph unicode="J" horiz-adv-x="444" d="M94 -203Q58 -203 29 -186T-18 -144T-35 -95Q-35 -53 -11 -32T41 -11Q81 -11 98 -32T115 -80Q115 -104 97 -124T54 -144Q47 -144 47 -149Q47 -154 59 -160T90 -166Q128 -166 153 -141T179 -52V581Q179 613 170 623T125
640L74 651V673H424V651L373 640Q339 633 329 623T319 581V-67H310Q294 -67 284 -80T261 -113Q245 -139 224 -159T172 -191T94 -203Z" />
<glyph unicode="K" horiz-adv-x="769" d="M30 0V22L81 33Q116 41 125 51T135 92V581Q135 613 126 623T81 640L30 651V673H380V651L329 640Q295 633 285 623T275 581V315L567 597Q578 607 577 619T553 636L474 651V673H743V651L713 644Q694 640 678 634T646 615T607
582L419 400L677 64Q696 43 714 33T759 23V0H638Q596 0 568 11T514 51L318 303L275 261V92Q275 61 285 51T329 33L380 22V0H30Z" />
<glyph unicode="L" horiz-adv-x="701" d="M30 0V22L81 33Q116 41 125 51T135 92V581Q135 613 126 623T81 640L30 651V673H380V651L329 640Q295 633 285 623T275 581V92Q275 65 289 49T344 33H470Q508 33 537 42T588 71T627 120L674 197H696Q686 153 677 100T667 0H30Z" />
<glyph unicode="M" horiz-adv-x="992" d="M453 -6L207 536L178 92Q177 67 191 55T232 37L305 22V0H30V22L88 35Q106 39 117 45T135 63T142 92L172 581Q174 613 164 623T118 640L67 651V673L302 672L513 209L700 673H942V651L891 640Q857 633 847 623T837 581L857
92Q858 71 862 60T877 44T911 33L962 22V0H612V22L663 33Q698 41 708 51T717 92L695 559L468 -6H453Z" />
<glyph unicode="N" horiz-adv-x="831" d="M687 -17L178 546V92Q178 67 191 55T232 37L305 22V0H30V22L88 35Q115 41 128 53T142 92V581Q142 602 138 613T123 629T88 640L37 651V673H249L668 211V581Q668 606 655 618T614 636L541 651V673H816V651L758 638Q731
632 718 620T704 581V-17H687Z" />
<glyph unicode="O" horiz-adv-x="796" d="M397 -11Q319 -11 254 15T141 88T67 197T40 329Q40 405 66 469T141 582T254 656T397 683Q475 683 541 657T655 583T729 475T756 342Q756 266 730 202T655 90T541 16T397 -11ZM397 24Q460 24 506 63T577 173T603 341Q603
432 578 501T506 609T397 648Q336 648 290 609T219 499T193 329Q193 262 207 206T249 109T313 46T397 24Z" />
<glyph unicode="P" horiz-adv-x="658" d="M30 0V22L81 33Q116 41 125 51T135 92V581Q135 602 131 613T116 629T81 640L30 651V673H342Q434 673 499 647T598 575T633 467Q633 418 612 381T556 320T480 282T397 267T323 274L322 281Q368 284 407 302T469 359T493
464Q493 559 445 599T311 640H275V92Q275 61 285 50T329 33L389 22V0H30Z" />
<glyph unicode="Q" horiz-adv-x="799" d="M530 25Q543 5 570 -15T633 -54T710 -85T794 -107T878 -115L885 -135Q848 -142 810 -146T725 -150Q649 -150 581 -135T452 -86T339 -1L530 25ZM397 -11Q319 -11 254 15T141 88T67 197T40 329Q40 405 66 469T141 582T254
656T397 683Q475 683 541 657T655 583T729 475T756 342Q756 266 730 202T655 90T541 16T397 -11ZM397 24Q460 24 506 63T577 173T603 341Q603 432 578 501T506 609T397 648Q336 648 290 609T219 499T193 329Q193 262 207 206T249 109T313 46T397 24Z" />
<glyph unicode="R" horiz-adv-x="792" d="M708 -15Q666 -15 628 0T554 48T482 134Q457 172 431 208T374 269T298 294H275V92Q275 61 285 51T329 33L380 22V0H30V22L81 33Q116 41 125 51T135 92V581Q135 613 126 623T81 640L30 651V673H310Q460 673 544 625T629
489Q629 443 601 406T525 345T422 316V314Q468 312 504 290T569 233T625 159Q651 122 677 90T730 39T787 19V-5Q747 -15 708 -15ZM275 327H310Q358 327 398 343T463 393T487 479Q487 558 438 599T297 640H275V327Z" />
<glyph unicode="S" horiz-adv-x="583" d="M301 -11Q215 -11 153 10T55 50Q63 94 63 141T50 236H85Q90 174 116 126T189 50T301 22Q330 22 361 33T413 71T435 139Q435 176 420 200T365 244T253 289Q162 320 114 363T66 487Q66 539 91 583T167 655T291 683Q331 683
356 675T400 658Q415 651 427 646T452 640L484 646L487 644Q485 634 484 620T483 594Q483 563 487 534T496 486T501 467H474Q459 525 432 565T368 628T289 650Q250 650 223 633T181 590T167 536Q167 501 180 479T229 439T335 398Q408 374 450 346T510 282T528 196Q528
133 500 87T420 15T301 -11Z" />
<glyph unicode="T" horiz-adv-x="704" d="M177 0V22L228 33Q263 41 272 51T282 92V640H209Q166 640 131 618T72 558T37 476H10Q16 503 20 537T26 607T22 673H682Q677 643 678 608T684 538T694 476H667Q656 520 632 557T574 617T495 640H422V92Q422 61 432 51T476
33L527 22V0H177Z" />
<glyph unicode="U" horiz-adv-x="765" d="M374 -11Q326 -11 281 5T199 52T141 123T120 215V581Q120 613 111 623T66 640L15 651V673H365V651L314 640Q280 633 270 623T260 581V220Q260 145 303 101T431 57Q480 57 517 77T575 134T597 216V581Q597 606 584 618T543
636L470 651V673H745V651L687 638Q660 632 647 620T633 581V109Q617 109 605 97T575 67Q559 50 536 32T474 2T374 -11Z" />
<glyph unicode="V" horiz-adv-x="780" d="M362 -15L97 614Q93 625 83 631T60 639L5 651V673H365V651L314 640Q289 635 277 627T265 604Q265 600 266 594T270 582L449 121H422L611 585Q613 590 614 594T615 602Q615 615 604 622T571 634L496 651V673H775V651L712
638Q693 634 680 627T660 602L410 -15H362Z" />
<glyph unicode="W" horiz-adv-x="1142" d="M340 -15L103 607Q98 620 90 627T63 639L8 651V673H368V651L317 640Q283 633 273 621T273 582L412 166L556 591Q563 611 554 622T524 638L454 651V673H771V651L708 638Q696 636 687 631T675 616T676 591L820 160L974
595Q980 612 970 619T917 637L855 651V673H1134V651L1071 637Q1052 633 1038 624T1018 597L794 -15H746L560 473L388 -15H340Z" />
<glyph unicode="X" horiz-adv-x="797" d="M10 0V22L73 35Q93 39 110 48T140 71L332 304L114 607Q105 620 95 628T64 641L16 651V673H397V651L312 632Q299 629 294 620T298 597L439 400L580 588Q594 605 591 617T568 634L493 651V673H772V651L709 638Q690 634 672
625T642 602L467 370L687 70Q701 51 713 43T740 32L787 22V0H401V22L452 33Q469 37 483 44T503 63T496 91L360 276L202 85Q188 69 191 57T214 39L289 22V0H10Z" />
<glyph unicode="Y" horiz-adv-x="748" d="M339 250L105 614Q98 624 89 630T68 639L15 651V673H375V651L324 640Q300 635 288 623T291 585L424 373H407L562 596Q570 608 566 617T539 632L454 651V673H733V651L670 638Q651 634 638 627T618 602L382 257L339 250ZM189
0V22L240 33Q275 41 284 51T294 92V353L434 361V92Q434 61 444 51T488 33L539 22V0H189Z" />
<glyph unicode="Z" horiz-adv-x="666" d="M25 0V18L450 640H296Q238 640 198 622T131 567T80 471H59Q67 505 71 542T75 616Q75 630 74 644T70 673H625V652L205 33H389Q446 33 494 55T576 116T629 204H651Q638 151 631 102T624 0H25Z" />
<glyph unicode="[" horiz-adv-x="260" d="M30 -214V744H235V694H125V-164H235V-214H30Z" />
<glyph unicode="\" horiz-adv-x="446" d="M421 -7H369L25 710H77L421 -7Z" />
<glyph unicode="]" horiz-adv-x="260" d="M230 -214H25V-164H135V694H25V744H230V-214Z" />
<glyph unicode="^" horiz-adv-x="576" d="M30 289L250 677H326L546 289H458L260 622H316L118 289H30Z" />
<glyph unicode="_" horiz-adv-x="570" d="M0 -94V-39H570V-94H0Z" />
<glyph unicode="`" horiz-adv-x="563" d="M614 535L465 655Q453 665 448 676T443 699Q444 716 456 728T489 739Q515 738 532 710L633 550L614 535Z" />
<glyph unicode="a" horiz-adv-x="485" d="M173 -7Q134 -7 104 13T57 67T40 140Q40 158 43 165T55 176L261 253Q279 260 284 268T290 291V328Q290 372 270 395T207 419Q179 419 162 408T145 382Q145 375 149 369T158 355Q166 345 171 335T176 312Q176 288 159 275T115
261Q88 261 73 276T58 318Q58 355 84 385T152 434T237 452Q282 452 320 438T383 393T407 314V97Q407 78 411 65T433 51Q448 51 475 59V34Q455 22 423 8T365 -6Q345 -6 331 2T308 29T299 81V96L327 73Q304 54 279 36T227 5T173 -7ZM229 53Q243 53 254 58T279 72Q290
80 290 100V219Q290 222 289 223T284 223L165 180Q159 178 157 172T154 150Q154 126 164 104T191 68T229 53Z" />
<glyph unicode="b" horiz-adv-x="558" d="M100 -12L79 -9V608Q79 629 72 636T52 646L20 654V672Q77 680 117 687T200 710L210 702Q203 691 200 668T196 618V394L276 439Q283 443 293 446T314 450Q389 450 437 419T509 338T533 229Q533 171 508 116T430 26T296
-9Q253 -9 212 7T144 48Q132 35 122 20T100 -12ZM296 26Q334 26 358 49T393 111T405 191Q405 240 392 282T352 352T282 379Q242 379 219 353T196 292V155Q196 120 210 91T247 44T296 26Z" />
<glyph unicode="c" horiz-adv-x="453" d="M245 -8Q181 -8 132 22T54 103T25 216Q25 286 55 339T138 422T257 452Q335 452 380 418T425 330Q425 298 409 283T369 268Q343 268 327 282T310 322Q310 338 318 354Q320 359 322 364T325 377Q325 397 306 408T258 420Q228
420 204 398T167 334T153 239Q153 154 196 110T298 65Q357 65 416 115L433 99Q393 44 346 18T245 -8Z" />
<glyph unicode="d" horiz-adv-x="565" d="M244 -8Q169 -8 121 23T49 104T25 213Q25 257 38 299T79 375T149 430T248 451Q281 451 311 444T362 426V608Q362 629 355 636T335 646L303 654V672Q360 680 400 687T483 710L493 702Q486 691 483 668T479 618V96Q479 63
496 49T553 35V9Q510 8 473 3T391 -8L381 -3L373 52H369L282 3Q275 -1 265 -4T244 -8ZM276 63Q317 63 339 89T362 150V287Q362 322 348 351T312 398T262 416Q225 416 201 393T165 332T153 251Q153 203 166 160T206 90T276 63Z" />
<glyph unicode="e" horiz-adv-x="458" d="M245 -8Q181 -8 132 22T54 103T25 216Q25 286 55 339T138 422T257 452Q310 452 349 428T411 361T433 265Q433 255 428 248T410 240H86V276L303 285Q317 285 317 306Q317 359 299 389T251 420Q205 420 179 370T153 239Q153
183 173 144T226 85T298 65Q357 65 416 115L433 99Q393 44 346 18T245 -8Z" />
<glyph unicode="f" horiz-adv-x="356" d="M30 0V17L62 29Q77 35 83 44T89 69V409H25V442H89V489Q89 574 115 622T189 690T299 711Q355 711 391 689T427 627Q427 598 411 583T372 567Q347 567 330 581T312 623Q312 633 315 639T321 650Q324 655 326 658T329 667Q329
677 318 680T292 684Q263 684 244 665T216 601T207 484V442H322L312 409H207V62Q207 51 214 43T239 29L282 17V0H30Z" />
<glyph unicode="g" horiz-adv-x="528" d="M237 -260Q183 -260 133 -248T52 -211T20 -146Q20 -113 44 -89T106 -52T182 -39L216 -45Q168 -52 149 -72T129 -121Q129 -154 165 -182T276 -210Q347 -210 394 -187T442 -121Q442 -83 407 -62T319 -41Q291 -41 262 -43T204
-45Q134 -45 88 -21T42 49Q42 52 43 54T49 60Q77 80 98 103T137 149V154Q95 177 75 215T54 290Q54 361 104 406T236 451Q265 451 289 445T336 430Q355 424 372 419T407 414Q436 414 436 432Q436 439 433 447T424 465Q419 473 415 481T411 499Q411 521 424 531T454
541Q477 541 490 523T504 479Q504 422 483 398T431 374Q411 374 390 383V377Q404 352 410 332T416 285Q416 243 395 208T335 152T241 131Q195 131 169 121T142 95Q142 79 158 71T199 63Q221 63 259 65T328 67Q376 67 420 54T492 11T520 -73Q520 -136 482 -177T380
-239T237 -260ZM240 170Q269 170 285 198T301 288Q301 350 285 382T236 414Q207 414 191 386T175 299Q175 235 191 203T240 170Z" />
<glyph unicode="h" horiz-adv-x="570" d="M325 0V17L357 29Q371 34 377 44T384 69V278Q384 322 362 345T296 369Q253 369 230 343T206 275L191 380H205Q235 394 265 410T327 445Q332 448 339 449T352 451Q423 451 462 416T501 312V62Q501 48 510 40T528 29L560
17V0H325ZM30 0V17L62 29Q76 34 82 44T89 69V608Q89 629 82 636T62 646L30 654V672Q87 680 127 687T210 710L220 702Q213 691 210 668T206 618V62Q206 48 215 40T233 29L265 17V0H30Z" />
<glyph unicode="i" horiz-adv-x="280" d="M30 0V17L62 29Q89 40 89 69V355Q89 376 82 383T62 393L30 401V419Q87 427 127 434T210 457L220 449Q213 438 210 415T206 365V62Q206 48 215 40T233 29L265 17V0H30ZM146 545Q115 545 94 566T72 619Q72 650 93 671T146
693Q177 693 198 672T220 619Q220 588 199 567T146 545Z" />
<glyph unicode="j" horiz-adv-x="268" d="M5 -260Q-36 -260 -58 -243T-80 -197Q-80 -167 -61 -151T-18 -134Q9 -134 26 -151T43 -194Q43 -199 42 -203T40 -212Q40 -221 46 -221Q54 -221 62 -212T76 -178T82 -107V355Q82 376 75 383T55 393L23 401V419Q80 427 120
434T203 457L213 449Q206 438 203 415T199 365V-95Q194 -95 188 -98T179 -109Q149 -179 111 -219T5 -260ZM139 545Q108 545 87 566T65 619Q65 650 86 671T139 693Q170 693 191 672T213 619Q213 588 192 567T139 545Z" />
<glyph unicode="k" d="M30 0V17L62 29Q76 34 82 44T89 69V608Q89 629 82 636T62 646L30 654V672Q87 680 127 687T210 710L220 702Q213 691 210 668T206 618V62Q206 48 215 40T233 29L265 17V0H30ZM312 0V17L333 22Q350 27 357 37T352 66L243 230L334 299L498 57Q507
44 517 36T548 22L569 17V0H312ZM197 146L203 203L397 389Q406 398 404 406T388 416L342 425V442H545V425L495 414Q482 410 476 407T462 396L197 146Z" />
<glyph unicode="l" horiz-adv-x="280" d="M30 0V17L62 29Q76 34 82 44T89 69V608Q89 629 82 636T62 646L30 654V672Q87 680 127 687T210 710L220 702Q213 691 210 668T206 618V62Q206 48 215 40T233 29L265 17V0H30Z" />
<glyph unicode="m" horiz-adv-x="829" d="M584 0V17L616 29Q630 34 636 44T643 69V277Q643 321 623 345T564 369Q526 369 505 344T483 277L468 380H482Q510 394 542 411T603 445Q612 451 620 451Q686 451 723 416T760 312V62Q760 48 769 40T787 29L819 17V0H584ZM30
0V17L62 29Q76 34 82 44T89 69V355Q89 376 82 383T62 393L30 401V419Q69 425 96 429T149 440T203 457L213 449Q206 438 203 415T199 365V355L206 333V62Q206 48 215 40T233 29L265 17V0H30ZM307 0V17L339 29Q353 34 359 44T366 69V277Q366 321 346 345T287 369Q249
369 228 344T206 277L191 380H205Q233 394 265 411T326 445Q335 451 343 451Q409 451 446 416T483 312V62Q483 48 492 40T510 29L542 17V0H307Z" />
<glyph unicode="n" horiz-adv-x="570" d="M325 0V17L357 29Q371 34 377 44T384 69V278Q384 322 362 345T296 369Q253 369 230 343T206 275L191 380H205Q235 394 265 410T327 445Q338 452 352 452Q423 452 462 416T501 312V62Q501 48 510 40T528 29L560 17V0H325ZM30
0V17L62 29Q76 34 82 44T89 69V355Q89 376 82 383T62 393L30 401V419Q69 425 96 429T149 440T203 457L213 449Q206 438 203 415T199 365V355L206 333V62Q206 48 215 40T233 29L265 17V0H30Z" />
<glyph unicode="o" horiz-adv-x="501" d="M250 -8Q183 -8 132 22T53 103T25 218Q25 287 53 339T132 421T250 451Q318 451 369 422T448 341T476 226Q476 158 448 105T369 22T250 -8ZM251 24Q299 24 323 70T348 215Q348 316 324 367T249 419Q202 419 178 373T153
229Q153 128 177 76T251 24Z" />
<glyph unicode="p" horiz-adv-x="558" d="M20 -250V-233L52 -221Q67 -215 73 -206T79 -181V355Q79 376 72 383T52 393L20 401V419Q59 425 86 429T139 440T193 457L203 449Q198 441 195 426T189 390H191L274 439Q282 444 292 447T312 451Q387 451 436 420T509 337T533
229Q533 186 520 144T479 67T409 12T310 -9Q277 -9 247 -2T196 16V-188Q196 -199 204 -207T228 -221L265 -233V-250H20ZM296 26Q334 26 358 49T393 111T405 191Q405 240 392 282T352 352T282 379Q242 379 219 353T196 292V155Q196 120 210 91T247 44T296 26Z" />
<glyph unicode="q" horiz-adv-x="558" d="M293 -250V-233L330 -221Q347 -215 354 -207T362 -188V48L282 3Q275 -1 265 -4T244 -8Q169 -8 121 23T49 104T25 213Q25 272 50 326T128 416T262 451Q305 451 346 435T414 394Q426 407 437 423T458 456L479 453V-181Q479
-197 485 -206T506 -221L538 -233V-250H293ZM276 63Q317 63 339 89T362 150V287Q362 322 348 351T312 398T262 416Q225 416 201 393T165 332T153 251Q153 203 166 160T206 90T276 63Z" />
<glyph unicode="r" horiz-adv-x="432" d="M30 0V17L62 29Q77 35 83 44T89 69V355Q89 376 82 383T62 393L30 401V419Q69 425 96 429T149 440T203 457L213 449Q206 438 203 415T199 365V355L206 333V62Q206 51 214 43T238 29L275 17V0H30ZM206 259L189 361L308 435Q324
445 335 448T356 451Q381 451 401 430T422 378Q422 353 403 333T351 312Q332 312 319 321T295 340Q288 348 280 355T262 363Q253 363 240 356T217 327T206 259Z" />
<glyph unicode="s" horiz-adv-x="411" d="M203 -8Q154 -8 111 6T45 34Q47 63 47 100T40 168H78Q84 129 101 96T146 43T209 23Q239 23 257 40T276 87Q276 111 267 126T235 155T167 186Q107 209 80 241T53 328Q53 361 73 389T130 434T216 452Q249 452 270 446T314
430H340Q336 393 338 366T347 307H317Q302 363 274 392T205 422Q178 422 162 407T145 366Q145 342 155 327T188 301T249 277Q303 258 337 227T371 131Q371 97 353 65T298 13T203 -8Z" />
<glyph unicode="t" horiz-adv-x="358" d="M184 -8Q84 -8 84 113V409H20V436Q88 445 125 482T175 588H201V442H316L306 409H201V121Q201 83 213 71T244 58Q258 58 276 65T314 83L328 57Q288 25 250 9T184 -8Z" />
<glyph unicode="u" horiz-adv-x="575" d="M213 -8Q145 -8 107 28T69 131V368Q69 389 62 396T42 407L10 415V433Q50 436 78 439T132 447T190 459L200 451Q193 440 190 417T186 367V168Q186 124 207 100T269 76Q310 76 332 101T354 168L369 63H355Q324 50 291 32T228
-3Q220 -8 213 -8ZM383 -8L373 -3L361 78L354 110V368Q354 389 347 396T327 407L295 415V433Q335 436 363 439T417 447T475 459L485 451Q478 440 475 417T471 367V96Q471 63 488 49T545 35V9Q502 8 465 3T383 -8Z" />
<glyph unicode="v" horiz-adv-x="522" d="M245 -8L66 397Q62 406 55 410T36 418L5 425V442H252V425L231 420Q215 416 205 406T202 376L314 111H287L396 385Q402 399 399 406T378 417L333 425V442H517V425L476 413Q463 409 457 405T447 391L275 -8H245Z" />
<glyph unicode="w" horiz-adv-x="759" d="M238 -8L69 397Q65 406 58 410T39 418L8 425V442H255V425L226 417Q210 413 204 404T205 376L293 147L379 385Q385 399 382 406T361 417L316 425V442H507V425L465 417Q452 413 450 406T454 381L544 147L630 385Q636 399
633 406T612 417L567 425V442H751V425L710 413Q697 409 691 405T681 391L519 -8H489L377 261L268 -8H238Z" />
<glyph unicode="x" horiz-adv-x="512" d="M5 0V17L41 26Q54 30 62 36T77 50L207 231V188L76 397Q70 405 64 410T46 418L15 425V442H275V425L244 417Q226 413 222 404T223 384L308 241L262 225L366 384Q375 397 375 405T359 416L315 425V442H489V425L457 416Q444
412 436 407T421 392L294 214L300 258L440 50Q446 42 455 35T476 24L507 17V0H244V17L265 22Q292 28 298 38T296 62L191 225L245 224L134 58Q125 45 125 37T141 26L185 17V0H5Z" />
<glyph unicode="y" horiz-adv-x="521" d="M80 -260Q45 -260 27 -239T9 -194Q9 -167 25 -148T68 -128Q84 -128 95 -133T113 -146Q120 -153 125 -156T135 -159Q150 -159 163 -130L226 10L65 397Q61 406 54 410T35 418L4 425V442H251V425L230 420Q214 416 204 406T201
376L303 111H276L395 385Q401 399 398 406T377 417L332 425V442H516V425L475 413Q462 409 456 405T446 391L199 -155Q180 -198 160 -220T119 -251T80 -260Z" />
<glyph unicode="z" horiz-adv-x="425" d="M10 0V6L258 412H187Q160 412 139 404T103 381T77 343T62 293H35Q41 313 45 339T49 392Q49 406 48 418T44 442H409V435L159 30H258Q298 30 324 47T367 92T391 152H415Q407 113 404 82T400 9V0H10Z" />
<glyph unicode="{" horiz-adv-x="347" d="M327 -217Q284 -217 240 -212T158 -191T97 -146T74 -66Q74 -32 81 7T94 85T101 158Q101 192 93 211T67 237T17 245V282Q49 282 67 289T93 316T101 369Q101 403 95 442T81 520T74 593Q74 643 97 673T157 718T239 738T327
744V706Q280 705 246 694T194 657T176 584Q176 556 178 532T184 483Q186 462 188 441T190 394Q190 356 180 328T148 284T89 264V263Q126 260 148 244T180 200T190 133Q190 104 188 79T182 30Q180 10 178 -11T176 -57Q176 -103 194 -129T246 -166T327 -179V-217Z"
/>
<glyph unicode="|" horiz-adv-x="305" d="M121 712H185V-283H120L121 712Z" />
<glyph unicode="}" horiz-adv-x="347" d="M20 -217V-179Q68 -177 101 -166T153 -129T171 -57Q171 -33 169 -12T165 30Q162 54 160 79T157 133Q157 172 167 199T199 243T258 263V264Q222 268 200 284T167 328T157 394Q157 419 159 440T163 483Q166 507 168 531T171
584Q171 631 153 657T102 694T20 706V744Q63 744 107 739T189 718T250 673T273 593Q273 560 267 521T253 442T246 369Q246 335 254 316T280 290T330 282V245Q299 245 281 238T254 211T246 158Q246 124 253 85T266 7T273 -66Q273 -115 250 -145T190 -191T108 -211T20
-217Z" />
<glyph unicode="~" horiz-adv-x="570" d="M107 276L66 285Q77 338 106 360T170 382Q199 382 230 374T289 355Q317 345 344 337T393 329Q420 329 436 340T463 382L504 373Q494 321 465 299T400 277Q371 277 341 285T281 303Q253 313 227 321T177 329Q150 329 134
318T107 276Z" />
<glyph unicode="&#xa0;" horiz-adv-x="285" />
<glyph unicode="&#xa1;" horiz-adv-x="249" d="M94 249H151L200 -170H45L94 249ZM126 499Q158 499 181 476T204 421Q204 388 181 365T126 342Q94 342 71 365T48 421Q48 453 71 476T126 499Z" />
<glyph unicode="&#xa2;" horiz-adv-x="453" d="M80 -99L49 -86L346 564L377 551L80 -99ZM245 -8Q181 -8 132 22T54 103T25 216Q25 286 55 339T138 422T257 452Q335 452 380 418T425 330Q425 298 409 283T369 268Q343 268 327 282T310 322Q310 338 318 354Q320
359 322 364T325 377Q325 397 306 408T258 420Q228 420 204 398T167 334T153 239Q153 154 196 110T298 65Q357 65 416 115L433 99Q393 44 346 18T245 -8Z" />
<glyph unicode="&#xa3;" horiz-adv-x="639" d="M47 -100Q30 -100 23 -90T15 -63Q15 -40 29 -9T69 53T132 103T216 123Q260 123 293 111T355 77T417 23Q444 -3 466 -27T508 -51Q528 -51 539 -39T550 -1Q550 10 544 22T530 48Q523 61 517 73T510 99Q510 119 522
134T559 149Q588 149 602 128T617 68Q617 34 604 -2T561 -64T487 -89Q425 -89 376 -60T292 3Q263 32 234 49T172 67Q154 67 140 55T115 27T99 -5T90 -27L85 -28Q109 25 123 64T146 135T160 199Q168 242 176 290T204 409Q226 489 257 541T325 625T402 669T483 682Q521
682 553 671T604 639T624 591Q624 562 607 545T566 528Q542 528 526 542T510 578Q510 585 511 592T517 606Q520 613 523 619T526 632Q526 644 513 648T487 652Q460 652 436 633T391 565T348 425Q332 353 306 279T247 137T179 16T110 -69T47 -100ZM41 245V281H433V245H41Z"
/>
<glyph unicode="&#xa4;" horiz-adv-x="593" d="M297 151Q236 151 192 177T124 247T100 344Q100 397 124 441T192 511T297 537Q358 537 401 511T469 441T493 344Q493 291 469 247T402 177T297 151ZM86 87L40 133L166 259L202 203L86 87ZM161 433L40 554L86 600L207
479L161 433ZM297 205Q349 205 382 242T415 344Q415 409 382 446T297 483Q245 483 212 446T178 344Q178 279 211 242T297 205ZM507 87L387 207L428 258L553 133L507 87ZM434 435L385 478L507 600L553 554L434 435Z" />
<glyph unicode="&#xa5;" horiz-adv-x="748" d="M136 322V358H578V322H136ZM136 190V226H578V190H136ZM339 250L105 614Q98 624 89 630T68 639L15 651V673H375V651L324 640Q300 635 288 623T291 585L424 373H407L562 596Q570 608 566 617T539 632L454 651V673H733V651L670
638Q651 634 638 627T618 602L382 257L339 250ZM189 0V22L240 33Q275 41 284 51T294 92V353L434 361V92Q434 61 444 51T488 33L539 22V0H189Z" />
<glyph unicode="&#xa6;" horiz-adv-x="310" d="M120 260V681H190V260H120ZM190 -283H120V130H190V-283Z" />
<glyph unicode="&#xa7;" horiz-adv-x="468" d="M241 84L248 121Q280 121 298 141T317 196Q317 236 301 267T258 324T202 376Q172 402 144 429T97 491T78 569Q78 607 99 639T160 692T250 712Q335 712 376 681T418 608Q418 579 401 564T357 548Q330 548 313 563T295
598Q295 606 296 612T299 626Q301 631 302 637T303 649Q303 663 290 671T256 680Q241 680 224 672T194 647T181 603Q181 565 198 536T243 483T300 433Q329 408 356 382T400 323T417 248Q417 207 398 170T340 108T241 84ZM213 -232Q131 -232 90 -195T49 -111Q49
-85 65 -70T107 -55Q130 -55 143 -70T157 -102Q157 -109 156 -115T152 -129Q151 -134 150 -139T148 -151Q148 -173 167 -185T213 -197Q244 -197 269 -176T295 -111Q295 -71 278 -41T234 14T177 67Q146 96 117 125T69 192T50 277Q50 310 70 338T127 383T213 401L209
371Q181 371 161 349T141 303Q141 265 158 235T205 178T266 123Q298 96 326 67T373 3T391 -77Q391 -115 371 -151T311 -209T213 -232Z" />
<glyph unicode="&#xa8;" horiz-adv-x="570" d="M174 554Q146 554 126 574T106 622Q106 650 126 670T174 690Q202 690 222 670T242 622Q242 594 222 574T174 554ZM396 554Q368 554 348 574T328 622Q328 650 348 670T396 690Q424 690 444 670T464 622Q464 594 444
574T396 554Z" />
<glyph unicode="&#xa9;" horiz-adv-x="755" d="M378 3Q268 3 192 48T75 167T35 332Q35 399 58 461T127 572T235 651T378 680Q456 680 519 655T627 584T696 479T720 353Q720 286 697 223T630 111T522 32T378 3ZM395 153Q333 153 286 178T212 246T185 342Q185 400
212 444T286 515T393 541Q421 541 438 536T469 526Q478 522 487 518T509 514Q516 514 521 515T531 517L533 516Q526 492 530 465T540 411H515Q495 460 467 485T391 510Q345 510 312 465T278 342Q278 266 309 226T393 186Q441 186 471 212T520 284H546Q539 256 534
228T529 173H525Q510 173 496 170T469 165Q453 161 436 157T395 153ZM380 56Q459 56 521 94T621 198T658 348Q658 408 637 459T577 548T488 607T377 628Q317 628 267 604T178 539T119 445T98 336Q98 251 135 188T236 91T380 56Z" />
<glyph unicode="&#xaa;" horiz-adv-x="380" d="M127 372Q97 372 74 387T38 428T25 482Q25 496 27 501T36 509L195 566Q209 571 213 577T218 595V622Q218 655 202 672T154 690Q132 690 119 682T105 663Q105 657 108 653T116 643Q122 636 126 628T130 610Q130 592
117 582T83 572Q62 572 50 583T38 615Q38 643 59 665T112 701T177 715Q229 715 268 691T307 612V450Q307 435 310 425T328 415Q333 415 341 417T360 421V403Q344 394 320 384T275 373Q253 373 239 387T225 438V449L246 432Q220 410 189 391T127 372ZM170 417Q181
417 189 420T209 431Q218 437 218 452V541Q218 546 213 544L121 512Q117 510 115 506T113 489Q113 462 130 440T170 417Z" />
<glyph unicode="&#xab;" horiz-adv-x="381" d="M160 49L15 200V206L160 357L188 337L117 204L188 69L160 49ZM328 49L183 200V206L328 357L356 337L285 204L356 69L328 49Z" />
<glyph unicode="&#xac;" horiz-adv-x="570" d="M445 208V380H52V437H500V209L445 208Z" />
<glyph unicode="&#xad;" horiz-adv-x="285" d="M12 330H273V240H12V330Z" />
<glyph unicode="&#xae;" horiz-adv-x="543" d="M271 178Q190 178 133 212T45 302T15 424Q15 474 32 520T83 604T164 663T271 685Q350 685 407 652T496 563T528 440Q528 373 498 313T410 216T271 178ZM274 222Q331 222 377 250T450 326T477 437Q477 495 450 541T376
615T271 642Q205 642 160 612T92 533T69 432Q69 380 92 332T161 253T274 222ZM391 313Q368 313 348 326T307 368Q292 389 278 405T240 422H235V357Q235 349 239 346T256 337L269 331V319H140V331L154 337Q166 342 169 344T173 357V529Q173 540 170 543T154 551L140
556V568H243Q299 568 330 551T362 500Q362 475 340 458T285 437V433Q317 432 333 416T366 378Q380 356 392 341T420 326V317Q413 315 406 314T391 313ZM235 445H243Q266 445 284 456T303 496Q303 525 286 537T239 550H235V445Z" />
<glyph unicode="&#xaf;" horiz-adv-x="570" d="M117 590V645H453V590H117Z" />
<glyph unicode="&#xb0;" horiz-adv-x="375" d="M187 368Q144 368 109 389T52 447T30 526Q30 569 51 604T108 661T187 683Q231 683 266 662T323 605T345 526Q345 483 324 447T267 390T187 368ZM186 443Q221 443 245 467T270 527Q270 562 246 587T186 613Q151 613
126 588T100 527Q100 492 125 468T186 443Z" />
<glyph unicode="&#xb1;" horiz-adv-x="570" d="M256 217V364H76V421H256V567H313V421H494V364H313V217H256ZM76 119V176H494V119H76Z" />
<glyph unicode="&#xb2;" horiz-adv-x="310" d="M25 349V359L112 453Q145 489 162 520T180 590Q180 622 168 641T128 661Q108 661 96 655T84 640Q84 632 88 625T93 610Q93 597 83 589T60 580Q45 580 36 590T27 613Q27 639 56 662T138 686Q179 686 207 675T249 643T263
598Q263 566 249 539T211 489T160 443L77 377L96 420H215Q229 420 236 427T249 448L254 461H275L252 349H25Z" />
<glyph unicode="&#xb3;" horiz-adv-x="307" d="M131 344Q85 344 52 361T18 413Q18 430 27 441T53 453Q73 453 81 443T90 422Q90 406 80 402T70 389Q70 380 85 375T120 369Q153 369 172 390T191 449Q191 478 176 496T124 515Q115 513 107 511T91 506L81 525L94
530Q122 541 147 561T172 616Q172 635 160 648T120 662Q101 662 92 656T82 643Q82 632 88 627T95 608Q95 597 84 590T59 582Q46 582 37 593T27 622Q27 645 56 665T136 686Q186 686 218 669T251 619Q251 595 234 578T180 549V548Q230 544 256 517T282 455Q282 425
267 400T218 360T131 344Z" />
<glyph unicode="&#xb4;" horiz-adv-x="570" d="M204 541L186 557L295 712Q313 738 339 738Q359 738 371 726T383 696Q383 685 378 674T359 653L204 541Z" />
<glyph unicode="&#xb5;" horiz-adv-x="575" d="M68 -260L69 368Q69 389 62 396T42 407L10 415V433Q50 436 78 439T132 447T190 459L200 451Q193 440 190 417T186 367V167Q186 123 207 100T269 76Q310 76 332 101T354 168L369 63H355Q324 51 290 33T228 -3Q220
-8 213 -8Q193 -8 175 -5L188 -242L68 -260ZM383 -8L373 -3L361 78L354 110V368Q354 389 347 396T327 407L295 415V433Q335 436 363 439T417 447T475 459L485 451Q478 440 475 417T471 367V96Q471 63 488 49T545 35V9Q502 8 465 3T383 -8Z" />
<glyph unicode="&#xb6;" horiz-adv-x="650" d="M274 -229Q200 -229 149 -199T71 -119T45 -17Q45 48 89 90T207 132Q251 132 275 109T300 58Q300 34 285 12T237 -10Q212 -10 193 7T173 57V62Q173 72 167 76T154 80Q139 80 125 71T102 40T93 -17Q93 -70 116 -109T180
-169T279 -190Q342 -190 381 -159T439 -73T458 52V203H322Q246 203 189 230T99 311T67 443Q67 515 98 566T190 645T336 673H615V651L564 640Q530 633 520 623T510 581V59Q510 -22 486 -87T409 -191T274 -229Z" />
<glyph unicode="&#xb7;" horiz-adv-x="285" d="M142 265Q108 265 84 289T59 348Q59 383 83 407T142 432Q177 432 201 408T225 348Q225 314 201 290T142 265Z" />
<glyph unicode="&#xb8;" horiz-adv-x="570" d="M170 -247V-214Q204 -212 231 -203T274 -180T290 -147Q290 -126 266 -116T196 -104L223 0H263L253 -36Q324 -36 362 -59T400 -120Q400 -153 379 -176T324 -214T249 -237T170 -247Z" />
<glyph unicode="&#xb9;" horiz-adv-x="247" d="M25 350V369L55 374Q68 377 74 380T83 390T86 407V635Q86 649 66 649L25 647V670L166 690V407Q166 397 168 391T177 381T197 374L227 369V350H25Z" />
<glyph unicode="&#xba;" horiz-adv-x="391" d="M195 371Q143 371 102 393T38 454T15 540Q15 590 38 629T102 692T195 715Q248 715 289 692T353 631T376 546Q376 496 353 457T289 394T195 371ZM195 405Q238 405 260 441T283 545Q283 608 261 644T195 681Q152 681
130 644T108 540Q108 477 130 441T195 405Z" />
<glyph unicode="&#xbb;" horiz-adv-x="381" d="M53 49L25 69L96 204L25 337L53 357L198 206V200L53 49ZM221 49L193 69L264 204L193 337L221 357L366 206V200L221 49Z" />
<glyph unicode="&#xbc;" horiz-adv-x="592" d="M430 0V260L448 257L325 108L324 120H521Q531 120 536 124T546 137L555 157H566L546 58H286V95L482 335H505V0H430ZM25 350V369L55 374Q68 377 74 380T83 390T86 407V635Q86 649 66 649L25 647V670L166 690V407Q166
397 168 391T177 381T197 374L227 369V350H25ZM502 673H567L124 0H58L502 673Z" />
<glyph unicode="&#xbd;" horiz-adv-x="656" d="M25 350V369L55 374Q68 377 74 380T83 390T86 407V635Q86 649 66 649L25 647V670L166 690V407Q166 397 168 391T177 381T197 374L227 369V350H25ZM502 673H567L124 0H58L502 673ZM371 0V10L458 104Q491 140 508 171T526
241Q526 273 514 292T474 312Q454 312 442 306T430 291Q430 283 434 276T439 261Q439 248 429 240T406 231Q391 231 382 241T373 264Q373 290 402 313T484 337Q525 337 553 326T595 294T609 249Q609 217 595 190T557 140T506 94L423 28L442 71H561Q575 71 582 78T595
99L600 112H621L598 0H371Z" />
<glyph unicode="&#xbe;" horiz-adv-x="609" d="M430 0V260L448 257L325 108L324 120H521Q531 120 536 124T546 137L555 157H566L546 58H286V95L482 335H505V0H430ZM519 673H584L141 0H75L519 673ZM131 344Q85 344 52 361T18 413Q18 430 27 441T53 453Q73 453 81
443T90 422Q90 406 80 402T70 389Q70 380 85 375T120 369Q153 369 172 390T191 449Q191 478 176 496T124 515Q115 513 107 511T91 506L81 525L94 530Q122 541 147 561T172 616Q172 635 160 648T120 662Q101 662 92 656T82 643Q82 632 88 627T95 608Q95 597 84 590T59
582Q46 582 37 593T27 622Q27 645 56 665T136 686Q186 686 218 669T251 619Q251 595 234 578T180 549V548Q230 544 256 517T282 455Q282 425 267 400T218 360T131 344Z" />
<glyph unicode="&#xbf;" horiz-adv-x="383" d="M296 300Q296 229 285 189T246 131T167 104Q136 99 121 94T100 80T95 57Q95 36 107 27T146 15L321 -4V-180H302L294 -150Q290 -136 278 -130T252 -121L154 -105Q90 -94 63 -58T35 52Q35 127 62 172T165 227Q205 233
224 242T248 265T254 300H296ZM272 504Q304 504 326 482T348 428Q348 396 326 374T272 351Q241 351 219 373T196 428Q196 460 218 482T272 504Z" />
<glyph unicode="&#xc0;" horiz-adv-x="769" d="M5 0V22L63 35Q85 40 96 49T115 75L319 558L288 635Q320 636 342 647T375 673T386 698H400L662 62Q667 50 678 44T713 33L764 22V0H414V22L465 33Q487 38 497 45T508 66Q508 71 507 76T503 87L325 533H347L153 74Q152
71 152 68T151 63Q151 54 158 47T181 37L267 22V0H5ZM216 226V259H501V226H216ZM464 735L278 781Q263 784 254 793T240 812Q234 827 240 843T265 867Q290 877 316 859L475 757L464 735Z" />
<glyph unicode="&#xc1;" horiz-adv-x="769" d="M5 0V22L63 35Q85 40 96 49T115 75L319 558L288 635Q320 636 342 647T375 673T386 698H400L662 62Q667 50 678 44T713 33L764 22V0H414V22L465 33Q487 38 497 45T508 66Q508 71 507 76T503 87L325 533H347L153 74Q152
71 152 68T151 63Q151 54 158 47T181 37L267 22V0H5ZM216 226V259H501V226H216ZM313 735L302 757L461 859Q487 877 512 867Q531 860 537 844T537 812Q533 802 524 793T499 781L313 735Z" />
<glyph unicode="&#xc2;" horiz-adv-x="769" d="M5 0V22L63 35Q85 40 96 49T115 75L319 558L288 635Q320 636 342 647T375 673T386 698H400L662 62Q667 50 678 44T713 33L764 22V0H414V22L465 33Q487 38 497 45T508 66Q508 71 507 76T503 87L325 533H347L153 74Q152
71 152 68T151 63Q151 54 158 47T181 37L267 22V0H5ZM216 226V259H501V226H216ZM355 877H397L532 732L517 710L376 786L235 710L220 732L355 877Z" />
<glyph unicode="&#xc3;" horiz-adv-x="769" d="M5 0V22L63 35Q85 40 96 49T115 75L319 558L288 635Q320 636 342 647T375 673T386 698H400L662 62Q667 50 678 44T713 33L764 22V0H414V22L465 33Q487 38 497 45T508 66Q508 71 507 76T503 87L325 533H347L153 74Q152
71 152 68T151 63Q151 54 158 47T181 37L267 22V0H5ZM216 226V259H501V226H216ZM63 718V732H74Q111 732 130 735T159 747T172 771Q181 802 209 830T280 877T377 896Q431 896 473 878T544 831T581 772Q586 756 594 747T623 735T679 732H690V718H562Q561 741 538
764T474 804T377 820Q321 820 280 804T215 765T191 718H63Z" />
<glyph unicode="&#xc4;" horiz-adv-x="769" d="M5 0V22L63 35Q85 40 96 49T115 75L319 558L288 635Q320 636 342 647T375 673T386 698H400L662 62Q667 50 678 44T713 33L764 22V0H414V22L465 33Q487 38 497 45T508 66Q508 71 507 76T503 87L325 533H347L153 74Q152
71 152 68T151 63Q151 54 158 47T181 37L267 22V0H5ZM216 226V259H501V226H216ZM265 731Q237 731 217 751T197 799Q197 827 217 847T265 867Q293 867 313 847T333 799Q333 771 313 751T265 731ZM487 731Q459 731 439 751T419 799Q419 827 439 847T487 867Q515 867
535 847T555 799Q555 771 535 751T487 731Z" />
<glyph unicode="&#xc5;" horiz-adv-x="769" d="M5 0V22L63 35Q85 40 96 49T115 75L319 558L288 635Q320 636 342 647T375 673T386 698H400L662 62Q667 50 678 44T713 33L764 22V0H414V22L465 33Q487 38 497 45T508 66Q508 71 507 76T503 87L325 533H347L153 74Q152
71 152 68T151 63Q151 54 158 47T181 37L267 22V0H5ZM216 226V259H501V226H216ZM478 787Q478 745 448 715T376 685Q334 685 304 715T274 787Q274 829 304 858T376 888Q418 888 448 859T478 787ZM439 787Q439 813 421 831T377 850Q351 850 332 832T313 787Q313 761
332 743T377 724Q403 724 421 742T439 787Z" />
<glyph unicode="&#xc6;" horiz-adv-x="990" d="M5 0V22L61 35Q83 40 93 47T114 67L468 563L467 507L164 76Q154 61 159 51T184 37L267 22V0H5ZM263 229L285 262H494V229H263ZM350 0V22L401 33Q436 41 445 51T455 92V581Q455 613 446 623T401 640L350 651V673H923Q920
659 919 646T918 618Q918 587 923 558T933 496H911Q895 536 869 568T808 620T728 640H595V372H723Q773 372 794 392T822 448L830 494H852V217H830L821 265Q815 300 794 319T725 339H595V119Q595 90 598 71T615 42T664 33H738Q774 33 802 43T853 73T895 120L938
180H960Q950 136 943 91T935 0H350Z" />
<glyph unicode="&#xc7;" horiz-adv-x="739" d="M435 -10Q348 -10 276 16T151 88T69 196T40 329Q40 405 69 469T151 582T275 656T431 683Q488 683 520 675T575 656Q593 648 609 642T648 635Q659 635 667 636T686 640L690 637Q679 594 685 547T702 451H675Q651 509
617 553T536 623T427 648Q362 648 309 609T225 499T193 329Q193 239 222 170T305 63T431 24Q478 24 517 39T587 82T643 146T683 224H714Q700 176 692 126T683 29H676Q649 29 625 24T577 12Q549 4 517 -3T435 -10ZM337 -244V-211Q371 -209 398 -200T441 -177T457
-144Q457 -123 433 -113T363 -101L390 3H430L420 -33Q491 -33 529 -56T567 -117Q567 -150 546 -173T491 -211T416 -234T337 -244Z" />
<glyph unicode="&#xc8;" horiz-adv-x="670" d="M30 0V22L81 33Q116 41 125 51T135 92V581Q135 613 126 623T81 640L30 651V673H603Q600 659 599 646T598 618Q598 587 603 558T613 496H591Q575 536 549 568T488 620T408 640H275V372H403Q453 372 474 392T502 448L510
494H532V217H510L501 265Q495 300 474 319T405 339H275V119Q275 90 278 71T295 42T344 33H418Q454 33 482 43T533 73T575 120L618 180H640Q630 136 623 91T615 0H30ZM432 735L246 781Q231 784 222 793T208 812Q202 827 208 843T233 867Q258 877 284 859L443 757L432
735Z" />
<glyph unicode="&#xc9;" horiz-adv-x="670" d="M30 0V22L81 33Q116 41 125 51T135 92V581Q135 613 126 623T81 640L30 651V673H603Q600 659 599 646T598 618Q598 587 603 558T613 496H591Q575 536 549 568T488 620T408 640H275V372H403Q453 372 474 392T502 448L510
494H532V217H510L501 265Q495 300 474 319T405 339H275V119Q275 90 278 71T295 42T344 33H418Q454 33 482 43T533 73T575 120L618 180H640Q630 136 623 91T615 0H30ZM281 735L270 757L429 859Q455 877 480 867Q499 860 505 844T505 812Q501 802 492 793T467 781L281
735Z" />
<glyph unicode="&#xca;" horiz-adv-x="670" d="M30 0V22L81 33Q116 41 125 51T135 92V581Q135 613 126 623T81 640L30 651V673H603Q600 659 599 646T598 618Q598 587 603 558T613 496H591Q575 536 549 568T488 620T408 640H275V372H403Q453 372 474 392T502 448L510
494H532V217H510L501 265Q495 300 474 319T405 339H275V119Q275 90 278 71T295 42T344 33H418Q454 33 482 43T533 73T575 120L618 180H640Q630 136 623 91T615 0H30ZM323 877H365L500 732L485 710L344 786L203 710L188 732L323 877Z" />
<glyph unicode="&#xcb;" horiz-adv-x="670" d="M30 0V22L81 33Q116 41 125 51T135 92V581Q135 613 126 623T81 640L30 651V673H603Q600 659 599 646T598 618Q598 587 603 558T613 496H591Q575 536 549 568T488 620T408 640H275V372H403Q453 372 474 392T502 448L510
494H532V217H510L501 265Q495 300 474 319T405 339H275V119Q275 90 278 71T295 42T344 33H418Q454 33 482 43T533 73T575 120L618 180H640Q630 136 623 91T615 0H30ZM233 731Q205 731 185 751T165 799Q165 827 185 847T233 867Q261 867 281 847T301 799Q301 771
281 751T233 731ZM455 731Q427 731 407 751T387 799Q387 827 407 847T455 867Q483 867 503 847T523 799Q523 771 503 751T455 731Z" />
<glyph unicode="&#xcc;" horiz-adv-x="410" d="M30 0V22L81 33Q116 41 125 51T135 92V581Q135 613 126 623T81 640L30 651V673H380V651L329 640Q295 633 285 623T275 581V92Q275 61 285 51T329 33L380 22V0H30ZM549 735L363 781Q348 784 339 793T325 812Q319 827
325 843T350 867Q375 877 401 859L560 757L549 735Z" />
<glyph unicode="&#xcd;" horiz-adv-x="410" d="M30 0V22L81 33Q116 41 125 51T135 92V581Q135 613 126 623T81 640L30 651V673H380V651L329 640Q295 633 285 623T275 581V92Q275 61 285 51T329 33L380 22V0H30ZM398 735L387 757L546 859Q572 877 597 867Q616 860
622 844T622 812Q618 802 609 793T584 781L398 735Z" />
<glyph unicode="&#xce;" horiz-adv-x="410" d="M30 0V22L81 33Q116 41 125 51T135 92V581Q135 613 126 623T81 640L30 651V673H380V651L329 640Q295 633 285 623T275 581V92Q275 61 285 51T329 33L380 22V0H30ZM440 877H482L617 732L602 710L461 786L320 710L305
732L440 877Z" />
<glyph unicode="&#xcf;" horiz-adv-x="410" d="M30 0V22L81 33Q116 41 125 51T135 92V581Q135 613 126 623T81 640L30 651V673H380V651L329 640Q295 633 285 623T275 581V92Q275 61 285 51T329 33L380 22V0H30ZM94 731Q66 731 46 751T26 799Q26 827 46 847T94
867Q122 867 142 847T162 799Q162 771 142 751T94 731ZM316 731Q288 731 268 751T248 799Q248 827 268 847T316 867Q344 867 364 847T384 799Q384 771 364 751T316 731Z" />
<glyph unicode="&#xd0;" horiz-adv-x="785" d="M30 323V378H388V323H30ZM30 0V22L81 33Q116 41 125 51T135 92V581Q135 613 126 623T81 640L30 651V673H379Q457 673 524 647T640 576T717 470T745 341Q745 268 719 206T644 98T530 26T386 0H30ZM365 33Q434 33 484
71T563 178T591 342Q591 431 563 498T485 604T365 642H275V92Q275 63 298 48T365 33Z" />
<glyph unicode="&#xd1;" horiz-adv-x="831" d="M687 -17L178 546V92Q178 67 191 55T232 37L305 22V0H30V22L88 35Q115 41 128 53T142 92V581Q142 602 138 613T123 629T88 640L37 651V673H249L668 211V581Q668 606 655 618T614 636L541 651V673H816V651L758 638Q731
632 718 620T704 581V-17H687ZM103 718V732H114Q151 732 170 735T199 747T212 771Q221 802 249 830T320 877T417 896Q471 896 513 878T584 831T621 772Q626 756 634 747T663 735T719 732H730V718H602Q601 741 578 764T514 804T417 820Q361 820 320 804T255 765T231
718H103Z" />
<glyph unicode="&#xd2;" horiz-adv-x="796" d="M397 -11Q319 -11 254 15T141 88T67 197T40 329Q40 405 66 469T141 582T254 656T397 683Q475 683 541 657T655 583T729 475T756 342Q756 266 730 202T655 90T541 16T397 -11ZM397 24Q460 24 506 63T577 173T603 341Q603
432 578 501T506 609T397 648Q336 648 290 609T219 499T193 329Q193 262 207 206T249 109T313 46T397 24ZM485 735L299 781Q284 784 275 793T261 812Q255 827 261 843T286 867Q311 877 337 859L496 757L485 735Z" />
<glyph unicode="&#xd3;" horiz-adv-x="796" d="M397 -11Q319 -11 254 15T141 88T67 197T40 329Q40 405 66 469T141 582T254 656T397 683Q475 683 541 657T655 583T729 475T756 342Q756 266 730 202T655 90T541 16T397 -11ZM397 24Q460 24 506 63T577 173T603 341Q603
432 578 501T506 609T397 648Q336 648 290 609T219 499T193 329Q193 262 207 206T249 109T313 46T397 24ZM334 735L323 757L482 859Q508 877 533 867Q552 860 558 844T558 812Q554 802 545 793T520 781L334 735Z" />
<glyph unicode="&#xd4;" horiz-adv-x="796" d="M397 -11Q319 -11 254 15T141 88T67 197T40 329Q40 405 66 469T141 582T254 656T397 683Q475 683 541 657T655 583T729 475T756 342Q756 266 730 202T655 90T541 16T397 -11ZM397 24Q460 24 506 63T577 173T603 341Q603
432 578 501T506 609T397 648Q336 648 290 609T219 499T193 329Q193 262 207 206T249 109T313 46T397 24ZM376 877H418L553 732L538 710L397 786L256 710L241 732L376 877Z" />
<glyph unicode="&#xd5;" horiz-adv-x="796" d="M397 -11Q319 -11 254 15T141 88T67 197T40 329Q40 405 66 469T141 582T254 656T397 683Q475 683 541 657T655 583T729 475T756 342Q756 266 730 202T655 90T541 16T397 -11ZM397 24Q460 24 506 63T577 173T603 341Q603
432 578 501T506 609T397 648Q336 648 290 609T219 499T193 329Q193 262 207 206T249 109T313 46T397 24ZM84 718V732H95Q132 732 151 735T180 747T193 771Q202 802 230 830T301 877T398 896Q452 896 494 878T565 831T602 772Q607 756 615 747T644 735T700 732H711V718H583Q582
741 559 764T495 804T398 820Q342 820 301 804T236 765T212 718H84Z" />
<glyph unicode="&#xd6;" horiz-adv-x="796" d="M397 -11Q319 -11 254 15T141 88T67 197T40 329Q40 405 66 469T141 582T254 656T397 683Q475 683 541 657T655 583T729 475T756 342Q756 266 730 202T655 90T541 16T397 -11ZM397 24Q460 24 506 63T577 173T603 341Q603
432 578 501T506 609T397 648Q336 648 290 609T219 499T193 329Q193 262 207 206T249 109T313 46T397 24ZM286 731Q258 731 238 751T218 799Q218 827 238 847T286 867Q314 867 334 847T354 799Q354 771 334 751T286 731ZM508 731Q480 731 460 751T440 799Q440 827
460 847T508 867Q536 867 556 847T576 799Q576 771 556 751T508 731Z" />
<glyph unicode="&#xd7;" horiz-adv-x="570" d="M148 155L108 196L244 332L110 466L151 506L284 372L421 509L462 469L325 332L459 198L419 157L284 292L148 155Z" />
<glyph unicode="&#xd8;" horiz-adv-x="796" d="M79 -13L41 27L719 684L757 644L79 -13ZM397 -11Q319 -11 254 15T141 88T67 197T40 329Q40 405 66 469T141 582T254 656T397 683Q475 683 541 657T655 583T729 475T756 342Q756 266 730 202T655 90T541 16T397 -11ZM397
24Q460 24 506 63T577 173T603 341Q603 432 578 501T506 609T397 648Q336 648 290 609T219 499T193 329Q193 262 207 206T249 109T313 46T397 24Z" />
<glyph unicode="&#xd9;" horiz-adv-x="765" d="M374 -11Q326 -11 281 5T199 52T141 123T120 215V581Q120 613 111 623T66 640L15 651V673H365V651L314 640Q280 633 270 623T260 581V220Q260 145 303 101T431 57Q480 57 517 77T575 134T597 216V581Q597 606 584
618T543 636L470 651V673H745V651L687 638Q660 632 647 620T633 581V109Q617 109 605 97T575 67Q559 50 536 32T474 2T374 -11ZM507 735L321 781Q306 784 297 793T283 812Q277 827 283 843T308 867Q333 877 359 859L518 757L507 735Z" />
<glyph unicode="&#xda;" horiz-adv-x="765" d="M374 -11Q326 -11 281 5T199 52T141 123T120 215V581Q120 613 111 623T66 640L15 651V673H365V651L314 640Q280 633 270 623T260 581V220Q260 145 303 101T431 57Q480 57 517 77T575 134T597 216V581Q597 606 584
618T543 636L470 651V673H745V651L687 638Q660 632 647 620T633 581V109Q617 109 605 97T575 67Q559 50 536 32T474 2T374 -11ZM356 735L345 757L504 859Q530 877 555 867Q574 860 580 844T580 812Q576 802 567 793T542 781L356 735Z" />
<glyph unicode="&#xdb;" horiz-adv-x="765" d="M374 -11Q326 -11 281 5T199 52T141 123T120 215V581Q120 613 111 623T66 640L15 651V673H365V651L314 640Q280 633 270 623T260 581V220Q260 145 303 101T431 57Q480 57 517 77T575 134T597 216V581Q597 606 584
618T543 636L470 651V673H745V651L687 638Q660 632 647 620T633 581V109Q617 109 605 97T575 67Q559 50 536 32T474 2T374 -11ZM398 877H440L575 732L560 710L419 786L278 710L263 732L398 877Z" />
<glyph unicode="&#xdc;" horiz-adv-x="765" d="M374 -11Q326 -11 281 5T199 52T141 123T120 215V581Q120 613 111 623T66 640L15 651V673H365V651L314 640Q280 633 270 623T260 581V220Q260 145 303 101T431 57Q480 57 517 77T575 134T597 216V581Q597 606 584
618T543 636L470 651V673H745V651L687 638Q660 632 647 620T633 581V109Q617 109 605 97T575 67Q559 50 536 32T474 2T374 -11ZM308 731Q280 731 260 751T240 799Q240 827 260 847T308 867Q336 867 356 847T376 799Q376 771 356 751T308 731ZM530 731Q502 731 482
751T462 799Q462 827 482 847T530 867Q558 867 578 847T598 799Q598 771 578 751T530 731Z" />
<glyph unicode="&#xdd;" horiz-adv-x="748" d="M339 250L105 614Q98 624 89 630T68 639L15 651V673H375V651L324 640Q300 635 288 623T291 585L424 373H407L562 596Q570 608 566 617T539 632L454 651V673H733V651L670 638Q651 634 638 627T618 602L382 257L339
250ZM189 0V22L240 33Q275 41 284 51T294 92V353L434 361V92Q434 61 444 51T488 33L539 22V0H189ZM351 735L340 757L499 859Q525 877 550 867Q569 860 575 844T575 812Q571 802 562 793T537 781L351 735Z" />
<glyph unicode="&#xde;" horiz-adv-x="648" d="M30 0V22L81 33Q116 41 125 51T135 92V581Q135 613 126 623T81 640L30 651V673H380V651L329 640Q295 633 285 623T275 581V548H342Q434 548 499 522T598 450T633 342Q633 293 612 256T556 195T480 157T397 142T323
149L322 156Q368 159 407 177T469 234T493 339Q493 434 445 474T311 515H275V92Q275 61 285 50T329 33L389 22V0H30Z" />
<glyph unicode="&#xdf;" horiz-adv-x="627" d="M434 -8Q385 -8 342 6T276 34Q278 63 278 100T271 168H309Q315 129 332 96T377 43T440 23Q470 23 488 40T507 87Q507 115 492 134T454 167T403 195Q374 211 347 230T302 278T284 352Q284 387 302 407T342 448Q364
468 382 495T401 572Q401 627 380 655T311 684Q273 684 250 665T217 601T207 484V0H30V17L62 29Q77 35 83 44T89 69V409H25V442H89V489Q89 570 113 618T189 689T324 711Q383 711 426 693T494 646T518 583Q518 551 507 531T478 499T441 475Q416 461 396 443T376
390Q376 364 390 347T428 316T477 289Q507 274 535 255T583 207T602 131Q602 97 584 65T529 13T434 -8Z" />
<glyph unicode="&#xe0;" horiz-adv-x="485" d="M173 -7Q134 -7 104 13T57 67T40 140Q40 158 43 165T55 176L261 253Q279 260 284 268T290 291V328Q290 372 270 395T207 419Q179 419 162 408T145 382Q145 375 149 369T158 355Q166 345 171 335T176 312Q176 288
159 275T115 261Q88 261 73 276T58 318Q58 355 84 385T152 434T237 452Q282 452 320 438T383 393T407 314V97Q407 78 411 65T433 51Q448 51 475 59V34Q455 22 423 8T365 -6Q345 -6 331 2T308 29T299 81V96L327 73Q304 54 279 36T227 5T173 -7ZM229 53Q243 53 254
58T279 72Q290 80 290 100V219Q290 222 289 223T284 223L165 180Q159 178 157 172T154 150Q154 126 164 104T191 68T229 53ZM568 535L419 655Q407 665 402 676T397 699Q398 716 410 728T443 739Q469 738 486 710L587 550L568 535Z" />
<glyph unicode="&#xe1;" horiz-adv-x="485" d="M173 -7Q134 -7 104 13T57 67T40 140Q40 158 43 165T55 176L261 253Q279 260 284 268T290 291V328Q290 372 270 395T207 419Q179 419 162 408T145 382Q145 375 149 369T158 355Q166 345 171 335T176 312Q176 288
159 275T115 261Q88 261 73 276T58 318Q58 355 84 385T152 434T237 452Q282 452 320 438T383 393T407 314V97Q407 78 411 65T433 51Q448 51 475 59V34Q455 22 423 8T365 -6Q345 -6 331 2T308 29T299 81V96L327 73Q304 54 279 36T227 5T173 -7ZM229 53Q243 53 254
58T279 72Q290 80 290 100V219Q290 222 289 223T284 223L165 180Q159 178 157 172T154 150Q154 126 164 104T191 68T229 53ZM436 541L418 557L527 712Q545 738 571 738Q591 738 603 726T615 696Q615 685 610 674T591 653L436 541Z" />
<glyph unicode="&#xe2;" horiz-adv-x="485" d="M173 -7Q134 -7 104 13T57 67T40 140Q40 158 43 165T55 176L261 253Q279 260 284 268T290 291V328Q290 372 270 395T207 419Q179 419 162 408T145 382Q145 375 149 369T158 355Q166 345 171 335T176 312Q176 288
159 275T115 261Q88 261 73 276T58 318Q58 355 84 385T152 434T237 452Q282 452 320 438T383 393T407 314V97Q407 78 411 65T433 51Q448 51 475 59V34Q455 22 423 8T365 -6Q345 -6 331 2T308 29T299 81V96L327 73Q304 54 279 36T227 5T173 -7ZM229 53Q243 53 254
58T279 72Q290 80 290 100V219Q290 222 289 223T284 223L165 180Q159 178 157 172T154 150Q154 126 164 104T191 68T229 53ZM522 719L660 538L642 522L501 619L360 522L342 538L480 719H522Z" />
<glyph unicode="&#xe3;" horiz-adv-x="485" d="M173 -7Q134 -7 104 13T57 67T40 140Q40 158 43 165T55 176L261 253Q279 260 284 268T290 291V328Q290 372 270 395T207 419Q179 419 162 408T145 382Q145 375 149 369T158 355Q166 345 171 335T176 312Q176 288
159 275T115 261Q88 261 73 276T58 318Q58 355 84 385T152 434T237 452Q282 452 320 438T383 393T407 314V97Q407 78 411 65T433 51Q448 51 475 59V34Q455 22 423 8T365 -6Q345 -6 331 2T308 29T299 81V96L327 73Q304 54 279 36T227 5T173 -7ZM229 53Q243 53 254
58T279 72Q290 80 290 100V219Q290 222 289 223T284 223L165 180Q159 178 157 172T154 150Q154 126 164 104T191 68T229 53ZM364 513L342 531L408 629L588 645Q597 646 602 647T615 656L639 677L661 659L594 559L415 545Q406 544 401 543T388 534L364 513Z" />
<glyph unicode="&#xe4;" horiz-adv-x="485" d="M173 -7Q134 -7 104 13T57 67T40 140Q40 158 43 165T55 176L261 253Q279 260 284 268T290 291V328Q290 372 270 395T207 419Q179 419 162 408T145 382Q145 375 149 369T158 355Q166 345 171 335T176 312Q176 288
159 275T115 261Q88 261 73 276T58 318Q58 355 84 385T152 434T237 452Q282 452 320 438T383 393T407 314V97Q407 78 411 65T433 51Q448 51 475 59V34Q455 22 423 8T365 -6Q345 -6 331 2T308 29T299 81V96L327 73Q304 54 279 36T227 5T173 -7ZM229 53Q243 53 254
58T279 72Q290 80 290 100V219Q290 222 289 223T284 223L165 180Q159 178 157 172T154 150Q154 126 164 104T191 68T229 53ZM390 554Q362 554 342 574T322 622Q322 650 342 670T390 690Q418 690 438 670T458 622Q458 594 438 574T390 554ZM612 554Q584 554 564
574T544 622Q544 650 564 670T612 690Q640 690 660 670T680 622Q680 594 660 574T612 554Z" />
<glyph unicode="&#xe5;" horiz-adv-x="485" d="M173 -7Q134 -7 104 13T57 67T40 140Q40 158 43 165T55 176L261 253Q279 260 284 268T290 291V328Q290 372 270 395T207 419Q179 419 162 408T145 382Q145 375 149 369T158 355Q166 345 171 335T176 312Q176 288
159 275T115 261Q88 261 73 276T58 318Q58 355 84 385T152 434T237 452Q282 452 320 438T383 393T407 314V97Q407 78 411 65T433 51Q448 51 475 59V34Q455 22 423 8T365 -6Q345 -6 331 2T308 29T299 81V96L327 73Q304 54 279 36T227 5T173 -7ZM229 53Q243 53 254
58T279 72Q290 80 290 100V219Q290 222 289 223T284 223L165 180Q159 178 157 172T154 150Q154 126 164 104T191 68T229 53ZM501 505Q467 505 439 522T393 567T376 630Q376 665 393 693T438 738T501 755Q536 755 564 738T609 693T626 630Q626 596 609 568T564 522T501
505ZM502 557Q532 557 553 578T574 630Q574 660 553 681T502 703Q472 703 450 682T428 630Q428 600 450 579T502 557Z" />
<glyph unicode="&#xe6;" horiz-adv-x="723" d="M173 -7Q134 -7 104 13T57 67T40 140Q40 158 43 165T55 176L261 253Q279 260 284 268T290 291V328Q290 372 270 395T207 419Q179 419 162 408T145 382Q145 375 149 369T158 355Q166 345 171 335T176 312Q176 288
159 275T115 261Q88 261 73 276T58 318Q58 355 84 385T152 434T237 452Q282 452 320 438T383 393T407 314V97L362 89Q338 68 307 46T241 8T173 -7ZM229 53Q243 53 254 58T279 72Q290 80 290 100V219Q290 222 289 223T284 223L165 180Q159 178 157 172T154 150Q154
126 164 104T191 68T229 53ZM510 -8Q446 -8 397 22T319 103T290 216Q290 286 320 339T403 422T522 452Q575 452 614 428T676 361T698 265Q698 255 693 248T675 240H351V276L568 285Q582 285 582 306Q582 359 564 389T516 420Q470 420 444 370T418 239Q418 183 438
144T491 85T563 65Q622 65 681 115L698 99Q658 44 611 18T510 -8Z" />
<glyph unicode="&#xe7;" horiz-adv-x="453" d="M245 -8Q181 -8 132 22T54 103T25 216Q25 286 55 339T138 422T257 452Q335 452 380 418T425 330Q425 298 409 283T369 268Q343 268 327 282T310 322Q310 338 318 354Q320 359 322 364T325 377Q325 397 306 408T258
420Q228 420 204 398T167 334T153 239Q153 154 196 110T298 65Q357 65 416 115L433 99Q393 44 346 18T245 -8ZM380 -244V-211Q414 -209 441 -200T484 -177T500 -144Q500 -123 476 -113T406 -101L433 3H473L463 -33Q534 -33 572 -56T610 -117Q610 -150 589 -173T534
-211T459 -234T380 -244Z" />
<glyph unicode="&#xe8;" horiz-adv-x="458" d="M245 -8Q181 -8 132 22T54 103T25 216Q25 286 55 339T138 422T257 452Q310 452 349 428T411 361T433 265Q433 255 428 248T410 240H86V276L303 285Q317 285 317 306Q317 359 299 389T251 420Q205 420 179 370T153
239Q153 183 173 144T226 85T298 65Q357 65 416 115L433 99Q393 44 346 18T245 -8ZM586 535L437 655Q425 665 420 676T415 699Q416 716 428 728T461 739Q487 738 504 710L605 550L586 535Z" />
<glyph unicode="&#xe9;" horiz-adv-x="458" d="M245 -8Q181 -8 132 22T54 103T25 216Q25 286 55 339T138 422T257 452Q310 452 349 428T411 361T433 265Q433 255 428 248T410 240H86V276L303 285Q317 285 317 306Q317 359 299 389T251 420Q205 420 179 370T153
239Q153 183 173 144T226 85T298 65Q357 65 416 115L433 99Q393 44 346 18T245 -8ZM454 541L436 557L545 712Q563 738 589 738Q609 738 621 726T633 696Q633 685 628 674T609 653L454 541Z" />
<glyph unicode="&#xea;" horiz-adv-x="458" d="M245 -8Q181 -8 132 22T54 103T25 216Q25 286 55 339T138 422T257 452Q310 452 349 428T411 361T433 265Q433 255 428 248T410 240H86V276L303 285Q317 285 317 306Q317 359 299 389T251 420Q205 420 179 370T153
239Q153 183 173 144T226 85T298 65Q357 65 416 115L433 99Q393 44 346 18T245 -8ZM540 719L678 538L660 522L519 619L378 522L360 538L498 719H540Z" />
<glyph unicode="&#xeb;" horiz-adv-x="458" d="M245 -8Q181 -8 132 22T54 103T25 216Q25 286 55 339T138 422T257 452Q310 452 349 428T411 361T433 265Q433 255 428 248T410 240H86V276L303 285Q317 285 317 306Q317 359 299 389T251 420Q205 420 179 370T153
239Q153 183 173 144T226 85T298 65Q357 65 416 115L433 99Q393 44 346 18T245 -8ZM408 554Q380 554 360 574T340 622Q340 650 360 670T408 690Q436 690 456 670T476 622Q476 594 456 574T408 554ZM630 554Q602 554 582 574T562 622Q562 650 582 670T630 690Q658
690 678 670T698 622Q698 594 678 574T630 554Z" />
<glyph unicode="&#xec;" horiz-adv-x="280" d="M30 0V17L62 29Q89 40 89 69V355Q89 376 82 383T62 393L30 401V419Q87 427 127 434T210 457L220 449Q213 438 210 415T206 365V62Q206 48 215 40T233 29L265 17V0H30ZM213 535L64 655Q52 665 47 676T42 699Q43 716
55 728T88 739Q114 738 131 710L232 550L213 535Z" />
<glyph unicode="&#xed;" horiz-adv-x="280" d="M30 0V17L62 29Q89 40 89 69V355Q89 376 82 383T62 393L30 401V419Q87 427 127 434T210 457L220 449Q213 438 210 415T206 365V62Q206 48 215 40T233 29L265 17V0H30ZM337 541L319 557L428 712Q446 738 472 738Q492
738 504 726T516 696Q516 685 511 674T492 653L337 541Z" />
<glyph unicode="&#xee;" horiz-adv-x="280" d="M30 0V17L62 29Q89 40 89 69V355Q89 376 82 383T62 393L30 401V419Q87 427 127 434T210 457L220 449Q213 438 210 415T206 365V62Q206 48 215 40T233 29L265 17V0H30ZM167 719L305 538L287 522L146 619L5 522L-13
538L125 719H167Z" />
<glyph unicode="&#xef;" horiz-adv-x="280" d="M30 0V17L62 29Q89 40 89 69V355Q89 376 82 383T62 393L30 401V419Q87 427 127 434T210 457L220 449Q213 438 210 415T206 365V62Q206 48 215 40T233 29L265 17V0H30ZM35 554Q7 554 -13 574T-33 622Q-33 650 -13
670T35 690Q63 690 83 670T103 622Q103 594 83 574T35 554ZM257 554Q229 554 209 574T189 622Q189 650 209 670T257 690Q285 690 305 670T325 622Q325 594 305 574T257 554Z" />
<glyph unicode="&#xf0;" horiz-adv-x="547" d="M255 465L237 503L524 630L542 593L255 465ZM208 -11Q162 -11 120 8T52 66T25 166Q25 241 50 296T122 383T237 414Q302 414 342 374T382 270H375Q380 299 382 335T385 402Q385 518 366 582T300 647Q282 647 272 630T254
592Q247 573 236 556T204 539Q182 539 167 551T152 586Q152 626 195 654T310 682Q413 682 457 611T502 413Q502 290 469 194T370 44T208 -11ZM230 17Q263 17 286 39T323 95T345 166T352 231Q352 263 343 295T314 350T256 373Q203 373 174 319T144 158Q144 79 168
48T230 17Z" />
<glyph unicode="&#xf1;" horiz-adv-x="570" d="M325 0V17L357 29Q371 34 377 44T384 69V278Q384 322 362 345T296 369Q253 369 230 343T206 275L191 380H205Q235 394 265 410T327 445Q338 452 352 452Q423 452 462 416T501 312V62Q501 48 510 40T528 29L560 17V0H325ZM30
0V17L62 29Q76 34 82 44T89 69V355Q89 376 82 383T62 393L30 401V419Q69 425 96 429T149 440T203 457L213 449Q206 438 203 415T199 365V355L206 333V62Q206 48 215 40T233 29L265 17V0H30ZM149 513L127 531L193 629L373 645Q382 646 387 647T400 656L424 677L446
659L379 559L200 545Q191 544 186 543T173 534L149 513Z" />
<glyph unicode="&#xf2;" horiz-adv-x="501" d="M250 -8Q183 -8 132 22T53 103T25 218Q25 287 53 339T132 421T250 451Q318 451 369 422T448 341T476 226Q476 158 448 105T369 22T250 -8ZM251 24Q299 24 323 70T348 215Q348 316 324 367T249 419Q202 419 178 373T153
229Q153 128 177 76T251 24ZM573 535L424 655Q412 665 407 676T402 699Q403 716 415 728T448 739Q474 738 491 710L592 550L573 535Z" />
<glyph unicode="&#xf3;" horiz-adv-x="501" d="M250 -8Q183 -8 132 22T53 103T25 218Q25 287 53 339T132 421T250 451Q318 451 369 422T448 341T476 226Q476 158 448 105T369 22T250 -8ZM251 24Q299 24 323 70T348 215Q348 316 324 367T249 419Q202 419 178 373T153
229Q153 128 177 76T251 24ZM441 541L423 557L532 712Q550 738 576 738Q596 738 608 726T620 696Q620 685 615 674T596 653L441 541Z" />
<glyph unicode="&#xf4;" horiz-adv-x="501" d="M250 -8Q183 -8 132 22T53 103T25 218Q25 287 53 339T132 421T250 451Q318 451 369 422T448 341T476 226Q476 158 448 105T369 22T250 -8ZM251 24Q299 24 323 70T348 215Q348 316 324 367T249 419Q202 419 178 373T153
229Q153 128 177 76T251 24ZM527 719L665 538L647 522L506 619L365 522L347 538L485 719H527Z" />
<glyph unicode="&#xf5;" horiz-adv-x="501" d="M250 -8Q183 -8 132 22T53 103T25 218Q25 287 53 339T132 421T250 451Q318 451 369 422T448 341T476 226Q476 158 448 105T369 22T250 -8ZM251 24Q299 24 323 70T348 215Q348 316 324 367T249 419Q202 419 178 373T153
229Q153 128 177 76T251 24ZM369 513L347 531L413 629L593 645Q602 646 607 647T620 656L644 677L666 659L599 559L420 545Q411 544 406 543T393 534L369 513Z" />
<glyph unicode="&#xf6;" horiz-adv-x="501" d="M250 -8Q183 -8 132 22T53 103T25 218Q25 287 53 339T132 421T250 451Q318 451 369 422T448 341T476 226Q476 158 448 105T369 22T250 -8ZM251 24Q299 24 323 70T348 215Q348 316 324 367T249 419Q202 419 178 373T153
229Q153 128 177 76T251 24ZM395 554Q367 554 347 574T327 622Q327 650 347 670T395 690Q423 690 443 670T463 622Q463 594 443 574T395 554ZM617 554Q589 554 569 574T549 622Q549 650 569 670T617 690Q645 690 665 670T685 622Q685 594 665 574T617 554Z" />
<glyph unicode="&#xf7;" horiz-adv-x="570" d="M286 87Q251 87 227 111T202 170Q202 205 226 229T285 254Q320 254 344 230T368 171Q368 136 344 112T286 87ZM286 411Q251 411 227 435T202 494Q202 529 226 553T285 578Q320 578 344 554T368 495Q368 460 344 436T286
411ZM76 304V361H494V304H76Z" />
<glyph unicode="&#xf8;" horiz-adv-x="501" d="M58 -11L25 21L440 451L475 419L58 -11ZM250 -8Q183 -8 132 22T53 103T25 218Q25 287 53 339T132 421T250 451Q318 451 369 422T448 341T476 226Q476 158 448 105T369 22T250 -8ZM251 24Q299 24 323 70T348 215Q348
316 324 367T249 419Q202 419 178 373T153 229Q153 128 177 76T251 24Z" />
<glyph unicode="&#xf9;" horiz-adv-x="575" d="M213 -8Q145 -8 107 28T69 131V368Q69 389 62 396T42 407L10 415V433Q50 436 78 439T132 447T190 459L200 451Q193 440 190 417T186 367V168Q186 124 207 100T269 76Q310 76 332 101T354 168L369 63H355Q324 50 291
32T228 -3Q220 -8 213 -8ZM383 -8L373 -3L361 78L354 110V368Q354 389 347 396T327 407L295 415V433Q335 436 363 439T417 447T475 459L485 451Q478 440 475 417T471 367V96Q471 63 488 49T545 35V9Q502 8 465 3T383 -8ZM585 535L436 655Q424 665 419 676T414 699Q415
716 427 728T460 739Q486 738 503 710L604 550L585 535Z" />
<glyph unicode="&#xfa;" horiz-adv-x="575" d="M213 -8Q145 -8 107 28T69 131V368Q69 389 62 396T42 407L10 415V433Q50 436 78 439T132 447T190 459L200 451Q193 440 190 417T186 367V168Q186 124 207 100T269 76Q310 76 332 101T354 168L369 63H355Q324 50 291
32T228 -3Q220 -8 213 -8ZM383 -8L373 -3L361 78L354 110V368Q354 389 347 396T327 407L295 415V433Q335 436 363 439T417 447T475 459L485 451Q478 440 475 417T471 367V96Q471 63 488 49T545 35V9Q502 8 465 3T383 -8ZM453 541L435 557L544 712Q562 738 588 738Q608
738 620 726T632 696Q632 685 627 674T608 653L453 541Z" />
<glyph unicode="&#xfb;" horiz-adv-x="575" d="M213 -8Q145 -8 107 28T69 131V368Q69 389 62 396T42 407L10 415V433Q50 436 78 439T132 447T190 459L200 451Q193 440 190 417T186 367V168Q186 124 207 100T269 76Q310 76 332 101T354 168L369 63H355Q324 50 291
32T228 -3Q220 -8 213 -8ZM383 -8L373 -3L361 78L354 110V368Q354 389 347 396T327 407L295 415V433Q335 436 363 439T417 447T475 459L485 451Q478 440 475 417T471 367V96Q471 63 488 49T545 35V9Q502 8 465 3T383 -8ZM539 719L677 538L659 522L518 619L377 522L359
538L497 719H539Z" />
<glyph unicode="&#xfc;" horiz-adv-x="575" d="M213 -8Q145 -8 107 28T69 131V368Q69 389 62 396T42 407L10 415V433Q50 436 78 439T132 447T190 459L200 451Q193 440 190 417T186 367V168Q186 124 207 100T269 76Q310 76 332 101T354 168L369 63H355Q324 50 291
32T228 -3Q220 -8 213 -8ZM383 -8L373 -3L361 78L354 110V368Q354 389 347 396T327 407L295 415V433Q335 436 363 439T417 447T475 459L485 451Q478 440 475 417T471 367V96Q471 63 488 49T545 35V9Q502 8 465 3T383 -8ZM407 554Q379 554 359 574T339 622Q339 650
359 670T407 690Q435 690 455 670T475 622Q475 594 455 574T407 554ZM629 554Q601 554 581 574T561 622Q561 650 581 670T629 690Q657 690 677 670T697 622Q697 594 677 574T629 554Z" />
<glyph unicode="&#xfd;" horiz-adv-x="521" d="M80 -260Q45 -260 27 -239T9 -194Q9 -167 25 -148T68 -128Q84 -128 95 -133T113 -146Q120 -153 125 -156T135 -159Q150 -159 163 -130L226 10L65 397Q61 406 54 410T35 418L4 425V442H251V425L230 420Q214 416 204
406T201 376L303 111H276L395 385Q401 399 398 406T377 417L332 425V442H516V425L475 413Q462 409 456 405T446 391L199 -155Q180 -198 160 -220T119 -251T80 -260ZM228 541L210 557L319 712Q337 738 363 738Q383 738 395 726T407 696Q407 685 402 674T383 653L228
541Z" />
<glyph unicode="&#xfe;" horiz-adv-x="568" d="M30 -250V-233L62 -221Q77 -215 83 -206T89 -181V608Q89 629 82 636T62 646L30 654V672Q87 680 127 687T210 710L220 702Q213 691 210 668T206 618V394H208L284 439Q292 444 302 447T322 451Q397 451 446 420T519
337T543 229Q543 186 530 144T489 67T419 12T320 -9Q287 -9 257 -2T206 16V-188Q206 -199 214 -207T238 -221L275 -233V-250H30ZM306 26Q344 26 368 49T403 111T415 191Q415 240 402 282T362 352T292 379Q252 379 229 353T206 292V155Q206 120 220 91T257 44T306
26Z" />
<glyph unicode="&#xff;" horiz-adv-x="521" d="M80 -260Q45 -260 27 -239T9 -194Q9 -167 25 -148T68 -128Q84 -128 95 -133T113 -146Q120 -153 125 -156T135 -159Q150 -159 163 -130L226 10L65 397Q61 406 54 410T35 418L4 425V442H251V425L230 420Q214 416 204
406T201 376L303 111H276L395 385Q401 399 398 406T377 417L332 425V442H516V425L475 413Q462 409 456 405T446 391L199 -155Q180 -198 160 -220T119 -251T80 -260ZM182 554Q154 554 134 574T114 622Q114 650 134 670T182 690Q210 690 230 670T250 622Q250 594
230 574T182 554ZM404 554Q376 554 356 574T336 622Q336 650 356 670T404 690Q432 690 452 670T472 622Q472 594 452 574T404 554Z" />
<glyph unicode="&#x2013;" horiz-adv-x="570" d="M0 223V278H570V223H0Z" />
<glyph unicode="&#x2014;" horiz-adv-x="1140" d="M1140 222H0V278H1140V222Z" />
<glyph unicode="&#x2018;" horiz-adv-x="285" d="M241 694V661Q198 654 172 626T146 558Q146 530 167 509T227 482V451Q200 438 185 420T153 372Q104 388 75 422T45 506Q45 553 69 594T137 663T241 694Z" />
<glyph unicode="&#x2019;" horiz-adv-x="285" d="M44 367V400Q87 407 113 435T139 503Q139 532 118 552T58 579V610Q85 624 100 642T132 689Q181 673 210 639T240 555Q240 508 216 467T148 398T44 367Z" />
<glyph unicode="&#x201a;" horiz-adv-x="285" d="M44 -164V-131Q87 -124 113 -96T139 -28Q139 1 118 21T58 48V79Q85 93 100 111T132 158Q181 142 210 108T240 24Q240 -23 216 -64T148 -133T44 -164Z" />
<glyph unicode="&#x201c;" horiz-adv-x="507" d="M241 945V912Q198 905 172 877T146 809Q146 781 167 760T227 733V702Q200 689 185 671T153 623Q104 639 75 673T45 757Q45 804 69 845T137 914T241 945ZM463 689V656Q420 649 394 621T368 553Q368 525 389 504T449
477V446Q422 433 407 415T375 367Q326 383 297 417T267 501Q267 548 291 589T359 658T463 689Z" />
<glyph unicode="&#x201d;" horiz-adv-x="507" d="M266 367V400Q309 407 335 435T361 503Q361 532 340 552T280 579V610Q307 624 322 642T354 689Q403 673 432 639T462 555Q462 508 438 467T370 398T266 367ZM44 367V400Q87 407 113 435T139 503Q139 532 118 552T58
579V610Q85 624 100 642T132 689Q181 673 210 639T240 555Q240 508 216 467T148 398T44 367Z" />
<glyph unicode="&#x201e;" horiz-adv-x="511" d="M270 -164V-131Q313 -124 339 -96T365 -28Q365 1 344 21T284 48V79Q311 93 326 111T358 158Q407 142 436 108T466 24Q466 -23 442 -64T374 -133T270 -164ZM44 -164V-131Q87 -124 113 -96T139 -28Q139 1 118 21T58
48V79Q85 93 100 111T132 158Q181 142 210 108T240 24Q240 -23 216 -64T148 -133T44 -164Z" />
<glyph unicode="&#x2022;" horiz-adv-x="361" d="M180 241Q131 241 97 275T62 359Q62 392 78 419T120 462T180 478Q213 478 240 462T283 419T299 359Q299 326 283 300T240 257T180 241Z" />
<glyph unicode="&#x2039;" horiz-adv-x="213" d="M160 49L15 200V206L160 357L188 337L117 204L188 69L160 49Z" />
<glyph unicode="&#x203a;" horiz-adv-x="213" d="M53 49L25 69L96 204L25 337L53 357L198 206V200L53 49Z" />
</font>
</defs>
</svg>
